<?xml version="1.0" standalone="no"?><!DOCTYPE svg PUBLIC "-//W3C//DTD SVG 1.1//EN" "http://www.w3.org/Graphics/SVG/1.1/DTD/svg11.dtd"><svg t="1556791114014" class="icon" style="" viewBox="0 0 1043 1024" version="1.1" xmlns="http://www.w3.org/2000/svg" p-id="4240" xmlns:xlink="http://www.w3.org/1999/xlink" width="48.890625" height="48"><defs><style type="text/css"></style></defs><path d="M921.076884 63.950958l1.275096 1.013538c2.092465 1.634738 4.11954 3.269476 6.081226 5.100383s3.563729 3.269476 5.263857 5.100383 3.269476 3.269476 4.675351 5.100383 2.844444 3.269476 4.18493 5.100383 2.517497 3.269476 3.727203 5.100383a114.954789 114.954789 0 0 1 20.205364 65.389528v693.717497a114.987484 114.987484 0 0 1-19.780332 64.702937l-0.850064 1.209706-0.850064 1.209706-0.850064 1.209707-0.882759 1.209706-0.948148 1.209706-0.948148 1.209706-0.948148 1.209707-1.046233 1.209706-1.046232 1.307791-1.046232 1.209706-1.078928 1.209706-1.144316 1.209706-1.144317 1.209707-1.177012 1.209706-1.275095 1.209706-1.275096 1.209706-1.275096 1.209707-1.37318 1.209706-1.405875 1.209706-1.405875 1.209706-1.536654 1.209707-1.536653 1.209706-1.569349 1.209706-1.700128 1.209706-1.700128 1.209707-1.798212 1.209706-1.896296 1.209706-1.896296 1.209706-2.092465 1.209707-2.12516 1.209706-2.288633 1.209706-2.386718 1.209706-2.550191 1.209707-2.680971 1.209706-2.942529 1.209706-3.073308 1.209707-3.563729 1.209706-3.923372 1.209706c-1.471264 0.425032-2.942529 0.850064-4.446487 1.209706s-3.629119 0.850064-5.460026 1.209707c-2.484802 0.490421-5.034994 0.882759-7.585185 1.209706a116.556833 116.556833 0 0 1-14.876118 0.980843H157.196424a116.556833 116.556833 0 0 1-14.876117-0.980843c-2.550192-0.326948-5.100383-0.719285-7.585186-1.209706q-2.74636-0.555811-5.460025-1.209707c-1.503959-0.359642-2.975223-0.784674-4.446488-1.209706l-3.923372-1.209706-2.74636-0.915454a115.57599 115.57599 0 0 0 73.30166 26.155811h693.782887a116.295275 116.295275 0 0 0 116.1318-116.1318V174.426564a116.327969 116.327969 0 0 0-80.298339-110.475606z" fill="#888A85" p-id="4241"></path><path d="M851.012005 40.279949H157.196424a116.491443 116.491443 0 0 0-31.288889 4.283014h756.26258a115.608685 115.608685 0 0 0-31.15811-4.283014z" fill="#F7F6F6" p-id="4242"></path><path d="M882.170115 44.562963H125.907535a115.020179 115.020179 0 0 0-14.54917 5.100383h785.328225a114.627842 114.627842 0 0 0-14.516475-5.100383z" fill="#F6F5F5" p-id="4243"></path><path d="M896.68659 49.663346H111.358365a115.052874 115.052874 0 0 0-10.396935 5.100383h806.0894a114.954789 114.954789 0 0 0-10.36424-5.100383z" fill="#F5F4F4" p-id="4244"></path><path d="M915.453384 59.864112c-2.713665-1.830907-5.49272-3.49834-8.369859-5.100383H100.96143c-2.877139 1.602043-5.656194 3.269476-8.369859 5.100383z" fill="#F4F3F3" p-id="4245"></path><path d="M922.35198 64.964496l-1.275096-1.013538c-1.863602-1.405875-3.727203-2.779055-5.688889-4.086846H92.558876c-2.386718 1.602043-4.708046 3.269476-6.963985 5.100384z" fill="#F3F2F2" p-id="4246"></path><path d="M928.53129 70.064879c-1.961686-1.765517-4.021456-3.465645-6.081226-5.100383H85.594891c-2.092465 1.634738-4.11954 3.269476-6.081226 5.100383z" fill="#F1F1F1" p-id="4247"></path><path d="M933.729757 75.197957c-1.700128-1.765517-3.465645-3.465645-5.263857-5.100384H79.513665c-1.830907 1.634738-3.563729 3.269476-5.263857 5.100384z" fill="#F0F0F0" p-id="4248"></path><path d="M938.339719 80.265645q-2.255939-2.615581-4.675351-5.100383H74.249808q-2.419413 2.484802-4.675351 5.100383z" fill="#EFEFEF" p-id="4249"></path><path d="M942.557344 85.398723q-2.027075-2.615581-4.18493-5.100383H69.574457q-2.157854 2.484802-4.152235 5.100383z" fill="#EEEEEE" p-id="4250"></path><path d="M946.284547 90.499106c-1.177011-1.732822-2.452107-3.43295-3.727203-5.100383H65.389527c-1.275096 1.667433-2.517497 3.269476-3.727203 5.100383z" fill="#EDEDED" p-id="4251"></path><path d="M966.489911 259.073308v-103.315454a114.954789 114.954789 0 0 0-20.205364-65.389527H61.695019a114.104725 114.104725 0 0 0-19.9765 65.389527v103.315454z" fill="#ECECEC" p-id="4252"></path><path d="M432.224777 422.579821l2.125159-1.961686q1.37318-1.209706 2.81175-2.354023t3.073308-2.354023q1.667433-1.209706 3.269476-2.354023t3.792593-2.354023q2.092465-1.242401 4.283014-2.354023c1.634738-0.850064 3.269476-1.634738 4.936909-2.354023s3.988761-1.634738 6.048531-2.354023q3.956066-1.37318 8.042912-2.354023a84.189017 84.189017 0 0 1 39.626054 0q4.11954 0.980843 8.075606 2.354023 3.073308 1.078927 6.048532 2.354023c1.667433 0.719285 3.269476 1.536654 4.936909 2.354023s2.877139 1.536654 4.283014 2.354023 2.550192 1.536654 3.792593 2.354023 2.288633 1.536654 3.269476 2.354023 2.05977 1.569349 3.073308 2.354023 1.896296 1.569349 2.811749 2.354023l2.12516 1.961686h417.512133v-163.473818H41.718519v163.473818z" fill="#EBEBEB" p-id="4253"></path><path d="M549.272031 422.972158l2.386717 2.354023c0.75198 0.784674 1.503959 1.569349 2.223244 2.354023l2.05977 2.354023c0.653895 0.784674 1.275096 1.569349 1.896297 2.354023l1.798212 2.354023c0.555811 0.784674 1.144317 1.569349 1.700127 2.354023s1.013538 1.569349 1.536654 2.354023l1.43857 2.354023 1.37318 2.354023c0.457727 0.784674 0.817369 1.569349 1.209706 2.354023l1.144317 2.354023 1.078927 2.354023c0.359642 0.784674 0.653895 1.569349 0.948148 2.354023s0.621201 1.569349 0.915454 2.354023 0.555811 1.569349 0.817369 2.354023 0.490421 1.569349 0.719285 2.354023l0.68659 2.354023c0.228863 0.784674 0.392337 1.569349 0.555811 2.354023s0.392337 1.569349 0.523116 2.354023 0.294253 1.569349 0.425032 2.354023l0.392337 2.354023c0.130779 0.784674 0.196169 1.569349 0.294253 2.354023s0.163474 1.569349 0.228863 2.354023 0 1.569349 0.196169 2.354023 0 1.569349 0 2.354023v7.062069c0 0.784674 0 1.569349-0.163474 2.354023s0 1.569349-0.196169 2.354023-0.196169 1.569349-0.294252 2.354023-0.228863 1.569349-0.359643 2.354023-0.261558 1.569349-0.425032 2.354023l-0.490421 2.354023a63.166284 63.166284 0 0 1-1.209707 4.708046l-0.68659 2.354023c-0.228863 0.784674-0.523116 1.569349-0.817369 2.354023s-0.555811 1.569349-0.850064 2.354023-0.621201 1.569349-0.948148 2.354023-0.68659 1.569349-1.046232 2.354023-0.719285 1.569349-1.111622 2.354023-0.817369 1.569349-1.209706 2.354023-0.850064 1.569349-1.307791 2.354023-0.915453 1.602043-1.37318 2.354023-1.013538 1.569349-1.536654 2.354023l-1.634738 2.354023c-0.555811 0.784674-1.144317 1.602043-1.732823 2.354023l-1.863601 2.354023c-0.653895 0.817369-1.340485 1.602043-2.027075 2.354023l-2.157855 2.354023c-0.75198 0.817369-1.536654 1.602043-2.321328 2.354023s-1.667433 1.602043-2.517497 2.354023-1.798212 1.602043-2.713665 2.354023-1.994381 1.602043-3.007918 2.354023-2.157854 1.602043-3.269477 2.354023-2.386718 1.602043-3.629119 2.354023-2.713665 1.602043-4.086845 2.354023-3.269476 1.634738-4.740741 2.354023-3.694508 1.634738-5.590804 2.354023-4.773436 1.667433-7.225543 2.354023a86.085313 86.085313 0 0 1-22.886335 3.269476 85.006386 85.006386 0 0 0 85.562197-75.917241v8.435249a85.954534 85.954534 0 0 1-65.389528 83.110089h455.765007v-163.473819H548.977778zM490.58493 570.425543c-1.896296 0-3.759898 0-5.6235-0.196169 1.863602 0.130779 3.759898 0.196169 5.6235 0.196169zM470.47765 586.05364a85.954534 85.954534 0 0 1-65.389527-83.11009v-8.435249c3.465645 40.279949 37.697063 72.843934 79.644444 75.688378q-2.779055-0.196169-5.525415-0.588505a84.385185 84.385185 0 0 1-11.443167-2.354023q-3.661814-1.013538-7.225543-2.354023c-1.896296-0.719285-3.759898-1.503959-5.590805-2.354023s-3.269476-1.536654-4.74074-2.354023-2.74636-1.536654-4.086846-2.354023-2.452107-1.536654-3.629119-2.354023-2.190549-1.536654-3.269476-2.354023-2.027075-1.569349-3.007918-2.354023-1.830907-1.569349-2.713666-2.354023-1.667433-1.569349-2.517497-2.354023l-2.321328-2.354023-2.157854-2.354023c-0.68659-0.784674-1.37318-1.569349-2.027076-2.354023l-1.863601-2.354023c-0.588506-0.784674-1.177011-1.569349-1.732823-2.354023l-1.634738-2.354023c-0.523116-0.784674-1.013538-1.569349-1.536654-2.354023s-0.915453-1.569349-1.37318-2.354023-0.882759-1.569349-1.30779-2.354023-0.817369-1.569349-1.209706-2.354023-0.75198-1.569349-1.111622-2.354023-0.719285-1.569349-1.046233-2.354023-0.621201-1.569349-0.948148-2.354023-0.588506-1.569349-0.850064-2.354023-0.555811-1.569349-0.817369-2.354023-0.457727-1.569349-0.68659-2.354023-0.457727-1.569349-0.653895-2.354023-0.359642-1.569349-0.555811-2.354023-0.359642-1.569349-0.490422-2.354023-0.294253-1.569349-0.425032-2.354023-0.228863-1.569349-0.359642-2.354023-0.228863-1.569349-0.294253-2.354023 0-1.569349-0.196169-2.354023 0-1.569349-0.163473-2.354023 0-1.569349 0-2.354023v-1.961686-0.392337-2.354023-2.354023c0-0.784674 0-1.569349 0.196168-2.354023s0-1.569349 0.228864-2.354023 0.196169-1.569349 0.294252-2.354023 0.261558-1.569349 0.392338-2.354023 0.261558-1.569349 0.425032-2.354023 0.359642-1.569349 0.523116-2.354023 0.359642-1.569349 0.555811-2.354023 0.457727-1.569349 0.68659-2.354023 0.490421-1.569349 0.719285-2.354023 0.523116-1.569349 0.817369-2.354023 0.588506-1.569349 0.915453-2.354023 0.621201-1.569349 0.948148-2.354023 0.719285-1.569349 1.078927-2.354023l1.144317-2.354023c0.392337-0.784674 0.784674-1.602043 1.209706-2.354023s0.915453-1.569349 1.37318-2.354023l1.43857-2.354023c0.490421-0.784674 0.980843-1.602043 1.536654-2.354023s1.111622-1.569349 1.700128-2.354023l1.798212-2.354023c0.621201-0.784674 1.242401-1.602043 1.896296-2.354023l2.05977-2.354023c0.719285-0.817369 1.471264-1.602043 2.223244-2.354023l2.386718-2.354023 0.457727-0.425032H41.718519v163.473819z" fill="#EAEAEA" p-id="4254"></path><path d="M966.489911 749.560153v-163.473818h-455.765007a84.319796 84.319796 0 0 1-40.247254 0H41.718519v163.473818z" fill="#E9E8E8" p-id="4255"></path><path d="M946.709579 914.276373a114.987484 114.987484 0 0 0 19.780332-64.702937v-100.013283H41.718519v100.013283a114.987484 114.987484 0 0 0 19.780332 64.702937z" fill="#E8E7E7" p-id="4256"></path><path d="M945.82682 915.453384l0.850064-1.209706H61.498851l0.850063 1.209706z" fill="#E7E6E6" p-id="4257"></path><path d="M944.878672 916.695785l0.850064-1.209706H62.348914l0.850064 1.209706z" fill="#E6E5E5" p-id="4258"></path><path d="M944.093997 917.905492l0.850064-1.209707H63.231673l0.850064 1.209707z" fill="#E5E4E4" p-id="4259"></path><path d="M943.211239 919.115198l0.882758-1.209706H64.081737l0.882759 1.209706z" fill="#E4E3E3" p-id="4260"></path><path d="M942.263091 920.324904l0.948148-1.209706H64.99719l0.948148 1.209706z" fill="#E3E2E2" p-id="4261"></path><path d="M941.314943 921.567305l0.948148-1.209706h-876.219668l0.948148 1.209706z" fill="#E2E1E1" p-id="4262"></path><path d="M940.3341 922.777011l0.948148-1.209706H66.893487l0.948148 1.209706z" fill="#E1E0E0" p-id="4263"></path><path d="M939.320562 923.986718l1.046232-1.209707H67.841635l1.046232 1.209707z" fill="#E0DFDF" p-id="4264"></path><path d="M938.339719 925.261814l1.046232-1.209707H68.887867l1.046233 1.209707z" fill="#DFDEDE" p-id="4265"></path><path d="M937.195402 926.40613l1.144317-1.144316H69.9341l1.046232 1.209706z" fill="#DEDDDD" p-id="4266"></path><path d="M936.116475 927.615837l1.078927-1.209707H70.980332l1.078927 1.209707z" fill="#DDDCDC" p-id="4267"></path><path d="M935.070243 928.825543l1.144316-1.209706H71.92848l1.144317 1.209706z" fill="#DCDBDB" p-id="4268"></path><path d="M933.795147 930.067944l1.144317-1.209706H73.236271l1.144316 1.209706z" fill="#DBDADA" p-id="4269"></path><path d="M932.65083 931.27765l1.177012-1.209706H74.380587l1.177012 1.209706z" fill="#DAD9D9" p-id="4270"></path><path d="M931.375734 932.487356l1.275096-1.209706H75.557599l1.275096 1.209706z" fill="#D9D8D8" p-id="4271"></path><path d="M930.100639 933.697063l1.275095-1.209707H76.832695l1.275096 1.209707z" fill="#D8D7D7" p-id="4272"></path><path d="M928.825543 935.070243l1.275096-1.209707H78.107791l1.275095 1.209707z" fill="#D7D6D6" p-id="4273"></path><path d="M927.452363 936.116475l1.37318-1.209706H79.382886l1.37318 1.209706z" fill="#D6D5D5" p-id="4274"></path><path d="M926.046488 937.358876l1.405875-1.209706H80.756066l1.405875 1.209706z" fill="#D5D4D4" p-id="4275"></path><path d="M924.640613 938.568582l1.405875-1.209706H82.161941l1.405875 1.209706z" fill="#D4D3D3" p-id="4276"></path><path d="M923.103959 939.778289l1.536654-1.209707H83.567816l1.536654 1.209707z" fill="#D3D2D2" p-id="4277"></path><path d="M921.567305 940.987995l1.536654-1.209706H85.006386l1.536654 1.209706z" fill="#D2D1D1" p-id="4278"></path><path d="M919.997957 942.197701l1.569348-1.209706H86.641124l1.569349 1.209706z" fill="#D1D0D0" p-id="4279"></path><path d="M918.297829 943.407407l1.700128-1.209706H88.275862l1.700128 1.209706z" fill="#D0CFCF" p-id="4280"></path><path d="M916.597701 944.617114l1.700128-1.209707H89.9106l1.700128 1.209707z" fill="#CFCECE" p-id="4281"></path><path d="M914.799489 945.859515l1.798212-1.209707H91.545338l1.798212 1.209707z" fill="#CDCCCD" p-id="4282"></path><path d="M912.903193 947.069221l1.896296-1.209706H93.40894l1.896296 1.209706z" fill="#CCCBCC" p-id="4283"></path><path d="M911.006897 948.148148l1.896296-1.209706H95.305236l1.896297 1.209706z" fill="#CBCACB" p-id="4284"></path><path d="M908.914432 949.488633l2.092465-1.209706H97.201533l2.092464 1.209706z" fill="#CAC9CA" p-id="4285"></path><path d="M906.789272 950.69834l2.12516-1.209707H99.293997l2.12516 1.209707z" fill="#C9C8C9" p-id="4286"></path><path d="M904.500639 951.908046l2.288633-1.209706H101.353768l2.288633 1.209706z" fill="#C8C7C8" p-id="4287"></path><path d="M902.146616 953.150447l2.386717-1.209706H103.675096l2.386718 1.209706z" fill="#C7C6C7" p-id="4288"></path><path d="M899.596424 954.360153l2.550192-1.209706H106.061814l2.550191 1.209706z" fill="#C6C5C6" p-id="4289"></path><path d="M896.915453 955.56986l2.680971-1.209707H108.612005l2.680971 1.209707z" fill="#C5C4C5" p-id="4290"></path><path d="M893.94023 956.779566l2.942529-1.209706H111.162197l2.942528 1.209706z" fill="#C4C3C4" p-id="4291"></path><path d="M890.866922 957.956577l3.073308-1.209706H114.235504l3.073308 1.209706z" fill="#C3C2C3" p-id="4292"></path><path d="M120.970626 959.198978h766.332567l3.563729-1.209706H117.341507l0.817369 0.294253z" fill="#C2C1C2" p-id="4293"></path><path d="M120.970626 959.198978l3.923371 1.209707h758.518519l3.923372-1.209707z" fill="#C1C0C1" p-id="4294"></path><path d="M129.275096 961.651086h749.690932c1.503959-0.359642 2.975223-0.784674 4.446488-1.209707h-758.518519c1.37318 0.425032 2.877139 0.784674 4.381099 1.209707z" fill="#C0BFC0" p-id="4295"></path><path d="M134.702427 962.860792h738.90166q2.74636-0.555811 5.460025-1.209706H129.275096q2.680971 0.653895 5.427331 1.209706z" fill="#BFBEBF" p-id="4296"></path><path d="M142.287612 964.070498h723.600511c2.550192-0.326948 5.100383-0.719285 7.585185-1.209706H134.702427c2.615581 0.490421 5.034994 0.882759 7.585185 1.209706z" fill="#BEBDBE" p-id="4297"></path><path d="M157.196424 965.051341h693.815581a116.556833 116.556833 0 0 0 14.876118-0.980843H142.287612a116.556833 116.556833 0 0 0 14.908812 0.980843z" fill="#BDBCBD" p-id="4298"></path><path d="M490.58493 570.425543a86.085313 86.085313 0 0 0 22.886334-3.269477q3.661814-1.013538 7.225543-2.354023c1.896296-0.719285 3.759898-1.503959 5.590805-2.354023s3.269476-1.536654 4.74074-2.354023 2.74636-1.536654 4.086846-2.354023 2.452107-1.536654 3.629119-2.354023 2.190549-1.536654 3.269476-2.354023 2.027075-1.569349 3.007918-2.354023 1.830907-1.569349 2.713666-2.354022 1.667433-1.569349 2.517497-2.354023 1.569349-1.569349 2.321328-2.354023l2.157854-2.354023c0.68659-0.784674 1.37318-1.569349 2.027076-2.354023l1.863601-2.354023c0.588506-0.784674 1.177011-1.569349 1.732823-2.354023l1.634738-2.354023c0.523116-0.784674 1.013538-1.569349 1.536654-2.354023s0.915453-1.569349 1.37318-2.354023 0.882759-1.569349 1.30779-2.354023 0.817369-1.569349 1.209707-2.354023 0.75198-1.569349 1.111621-2.354023 0.719285-1.569349 1.046233-2.354023 0.621201-1.569349 0.948148-2.354023 0.588506-1.569349 0.850064-2.354023 0.555811-1.569349 0.817369-2.354023 0.457727-1.569349 0.68659-2.354023 0.457727-1.569349 0.653895-2.354023 0.359642-1.569349 0.555811-2.354023 0.359642-1.569349 0.490422-2.354023 0.294253-1.569349 0.425032-2.354023 0.228863-1.569349 0.359642-2.354023 0.228863-1.569349 0.294253-2.354023 0-1.569349 0.196169-2.354023 0-1.569349 0.163473-2.354023 0-1.569349 0-2.354023v-1.961686-0.392337-2.354023-2.354023c0-0.784674 0-1.569349-0.196168-2.354023s0-1.569349-0.228864-2.354023-0.196169-1.569349-0.294252-2.354023-0.261558-1.569349-0.392338-2.354023-0.261558-1.569349-0.425032-2.354023-0.359642-1.569349-0.523116-2.354023-0.359642-1.569349-0.555811-2.354023-0.457727-1.569349-0.68659-2.354023-0.490421-1.569349-0.719285-2.354023-0.523116-1.569349-0.817369-2.354023-0.588506-1.569349-0.915453-2.354023-0.621201-1.569349-0.948148-2.354023-0.719285-1.569349-1.078927-2.354023l-1.144317-2.354023c-0.392337-0.784674-0.784674-1.602043-1.209706-2.354023s-0.915453-1.569349-1.37318-2.354023l-1.43857-2.354023c-0.490421-0.784674-0.980843-1.602043-1.536654-2.354023s-1.111622-1.569349-1.700128-2.354023l-1.798212-2.354023c-0.621201-0.784674-1.242401-1.602043-1.896296-2.354023l-2.05977-2.354023c-0.719285-0.817369-1.471264-1.602043-2.223244-2.354023l-2.386718-2.354023-0.457726-0.425032-2.12516-1.961686q-1.37318-1.209706-2.81175-2.354023t-3.073308-2.354023q-1.667433-1.209706-3.269476-2.354023t-3.792593-2.354023q-2.092465-1.242401-4.283014-2.354023c-1.634738-0.850064-3.269476-1.634738-4.936909-2.354023s-3.988761-1.634738-6.048531-2.354023q-3.956066-1.37318-8.075607-2.354023a84.189017 84.189017 0 0 0-39.626053 0q-4.11954 0.980843-8.042912 2.354023-3.073308 1.078927-6.048532 2.354023c-1.667433 0.719285-3.269476 1.536654-4.936909 2.354023s-2.877139 1.536654-4.283014 2.354023-2.550192 1.536654-3.792593 2.354023-2.288633 1.536654-3.269476 2.354023-2.05977 1.569349-3.073308 2.354023-1.896296 1.569349-2.811749 2.354023l-2.12516 1.961686-0.457727 0.425032-2.386718 2.354023c-0.75198 0.784674-1.503959 1.569349-2.223243 2.354023l-2.059771 2.354023c-0.653895 0.784674-1.275096 1.569349-1.896296 2.354023l-1.798212 2.354023c-0.555811 0.784674-1.144317 1.569349-1.700128 2.354023s-1.013538 1.569349-1.536654 2.354023l-1.438569 2.354023-1.37318 2.354023c-0.457727 0.784674-0.817369 1.569349-1.209706 2.354023l-1.144317 2.354023-1.078927 2.354023c-0.359642 0.784674-0.653895 1.569349-0.948149 2.354023s-0.621201 1.569349-0.915453 2.354023-0.555811 1.569349-0.817369 2.354023-0.490421 1.569349-0.719285 2.354023l-0.68659 2.354023c-0.228863 0.784674-0.392337 1.569349-0.555811 2.354023s-0.392337 1.569349-0.523116 2.354023-0.294253 1.569349-0.425032 2.354023l-0.392337 2.354023c-0.130779 0.784674-0.196169 1.569349-0.294253 2.354023s-0.163474 1.569349-0.228863 2.354023 0 1.569349-0.196169 2.354023 0 1.569349 0 2.354023v7.062069c0 0.784674 0 1.569349 0.163474 2.354023s0 1.569349 0.196168 2.354023 0.196169 1.569349 0.294253 2.354023 0.228863 1.569349 0.359643 2.354023 0.261558 1.569349 0.425032 2.354023l0.490421 2.354023c0.163474 0.784674 0.359642 1.569349 0.555811 2.354023s0.425032 1.569349 0.653895 2.354023l0.68659 2.354023c0.228863 0.784674 0.523116 1.569349 0.81737 2.354023s0.555811 1.569349 0.850063 2.354023 0.621201 1.569349 0.948149 2.354023 0.68659 1.569349 1.046232 2.354023 0.719285 1.569349 1.111622 2.354023 0.817369 1.569349 1.209706 2.354023 0.850064 1.569349 1.307791 2.354023 0.915453 1.602043 1.37318 2.354023 1.013538 1.569349 1.536654 2.354023l1.634738 2.354023c0.555811 0.784674 1.144317 1.602043 1.732822 2.354023l1.863602 2.354023c0.653895 0.817369 1.340485 1.602043 2.027075 2.354023l2.157855 2.354023 2.321328 2.354023c0.817369 0.817369 1.667433 1.602043 2.517497 2.354023s1.798212 1.602043 2.713665 2.354022 1.994381 1.602043 3.007918 2.354023 2.157854 1.602043 3.269477 2.354023 2.386718 1.602043 3.629118 2.354023 2.713665 1.602043 4.086846 2.354023 3.269476 1.634738 4.740741 2.354023 3.694508 1.634738 5.590804 2.354023 4.773436 1.667433 7.225543 2.354023a84.385185 84.385185 0 0 0 11.443167 2.354023q2.74636 0.359642 5.525415 0.588506h0.294253c1.43857 0.261558 3.334866 0.326948 5.198468 0.326948z" fill="#DB2E27" p-id="4299"></path><path d="M576.147126 502.94355v-8.435249a85.006386 85.006386 0 0 1-85.562196 75.917242c-1.896296 0-3.759898 0-5.6235-0.196169h-0.294252c-41.914687-2.844444-76.178799-35.408429-79.644445-75.688378v8.435249a85.954534 85.954534 0 0 0 65.389528 83.11009 84.319796 84.319796 0 0 0 40.247254 0 85.954534 85.954534 0 0 0 65.487611-83.142785z" fill="#FFFFFF" p-id="4300"></path></svg>