<?xml version="1.0" standalone="no"?><!DOCTYPE svg PUBLIC "-//W3C//DTD SVG 1.1//EN" "http://www.w3.org/Graphics/SVG/1.1/DTD/svg11.dtd"><svg t="1556791192057" class="icon" style="" viewBox="0 0 1043 1024" version="1.1" xmlns="http://www.w3.org/2000/svg" p-id="5313" xmlns:xlink="http://www.w3.org/1999/xlink" width="48.890625" height="48"><defs><style type="text/css"></style></defs><path d="M921.6 77.878927l1.340485 1.046233c2.092465 1.634738 4.11954 3.269476 6.081226 5.100383s3.563729 3.269476 5.263857 5.100383 3.269476 3.269476 4.675352 5.100383 2.844444 3.269476 4.184929 5.100383 2.517497 3.269476 3.727203 5.100383a115.118263 115.118263 0 0 1 20.238059 65.389528v694.731034a115.118263 115.118263 0 0 1-19.813027 64.768327l-0.850064 1.209706-0.850063 1.209707-0.850064 1.209706-0.882759 1.209706-0.948148 1.209707-0.948148 1.209706-0.948148 1.209706-1.046233 1.209706-1.046232 1.209707-1.046233 1.209706-1.078927 1.209706-1.144317 1.209706-1.144316 1.209707-1.177012 1.209706-1.275096 1.209706-1.275095 1.209706-1.275096 1.209707-1.37318 1.209706-1.405875 1.209706-1.405875 1.209706-1.536654 1.209707-1.536654 1.209706-1.569348 1.209706-1.700128 1.209706-1.700128 1.209707-1.798212 1.209706-1.896296 1.209706-1.896296 1.209706-2.092465 1.209707-2.12516 1.209706-2.288633 1.209706-2.386718 1.209706-2.550192 1.209707-2.68097 1.209706-2.942529 1.209706-3.073308 1.209707-3.563729 1.209706-3.923372 1.209706c-1.471264 0.425032-2.975223 0.850064-4.479182 1.209706s-3.629119 0.850064-5.460026 1.209707c-2.517497 0.490421-5.034994 0.882759-7.585185 1.209706a116.687612 116.687612 0 0 1-14.908812 0.980843H156.738697a116.687612 116.687612 0 0 1-14.908812-0.980843c-2.550192-0.326948-5.100383-0.719285-7.585185-1.209706q-2.74636-0.555811-5.460026-1.209707c-1.503959-0.359642-2.975223-0.784674-4.479182-1.209706l-3.923372-1.209706-2.81175-0.948148a115.772158 115.772158 0 0 0 73.43244 26.155811h694.763729a116.458748 116.458748 0 0 0 116.327969-116.32797V188.518008a116.524138 116.524138 0 0 0-80.494508-110.639081z" fill="#888A85" p-id="5314"></path><path d="M851.469732 54.207918H156.738697a116.622222 116.622222 0 0 0-31.321583 4.283014H882.758621a115.772158 115.772158 0 0 0-31.288889-4.283014z" fill="#F7F6F6" p-id="5315"></path><path d="M882.758621 58.490932H125.417114a115.281737 115.281737 0 0 0-14.581865 5.100383h786.374457a114.8894 114.8894 0 0 0-14.451085-5.100383z" fill="#F6F5F5" p-id="5316"></path><path d="M897.209706 63.591315H110.835249A115.281737 115.281737 0 0 0 100.438314 68.659004h807.135632a115.183653 115.183653 0 0 0-10.36424-5.067689z" fill="#F5F4F4" p-id="5317"></path><path d="M915.943806 73.824777c-2.713665-1.830907-5.49272-3.531034-8.36986-5.100384H100.438314c-2.877139 1.602043-5.688889 3.269476-8.402554 5.100384z" fill="#F4F3F3" p-id="5318"></path><path d="M922.940485 78.92516l-1.340485-1.046233c-1.830907-1.405875-3.694508-2.779055-5.623499-4.05415h-823.908046c-2.386718 1.602043-4.708046 3.269476-6.963985 5.100383z" fill="#F3F2F2" p-id="5319"></path><path d="M929.021711 84.025543c-1.961686-1.765517-4.021456-3.465645-6.081226-5.100383H85.006386c-2.092465 1.634738-4.11954 3.269476-6.113921 5.100383z" fill="#F1F1F1" p-id="5320"></path><path d="M934.285568 89.158621c-1.700128-1.765517-3.465645-3.465645-5.263857-5.100383h-850.063857c-1.830907 1.634738-3.563729 3.269476-5.263857 5.100383z" fill="#F0F0F0" p-id="5321"></path><path d="M938.993614 94.259004q-2.255939-2.615581-4.675351-5.100383H73.693997q-2.419413 2.484802-4.675351 5.100383z" fill="#EFEFEF" p-id="5322"></path><path d="M943.145849 99.359387q-2.027075-2.615581-4.184929-5.100383H69.018646q-2.157854 2.484802-4.18493 5.100383z" fill="#EEEEEE" p-id="5323"></path><path d="M946.873052 104.623244c-1.209706-1.732822-2.452107-3.43295-3.727203-5.100383H64.833716c-1.275096 1.667433-2.517497 3.269476-3.727203 5.100383z" fill="#EDEDED" p-id="5324"></path><path d="M154.97318 273.29553a88.864368 88.864368 0 0 1-14.581865-49.042146 87.687356 87.687356 0 0 1 0.326948-9.056449 88.733589 88.733589 0 0 0 31.060026 58.000511 88.897063 88.897063 0 1 1 146.505236-67.678161 90.041379 90.041379 0 0 1-0.621201 10.266156c0.261558 2.909834 0.294253 5.590805 0.294253 8.566028a88.60281 88.60281 0 0 1-14.679949 49.042145h400.935888a88.864368 88.864368 0 0 1-14.581865-49.042145 87.687356 87.687356 0 0 1 0.326948-9.05645 88.53742 88.53742 0 0 0 17.262835 43.451341 88.962452 88.962452 0 1 1 160.204343-53.128991 90.041379 90.041379 0 0 1-0.588506 10.168072c0.261558 2.909834 0.294253 5.590805 0.294253 8.566028a88.275862 88.275862 0 0 1-14.778034 49.042145h114.758621V169.816603a115.118263 115.118263 0 0 0-20.238059-65.389528H61.106513a114.431673 114.431673 0 0 0-20.009195 65.389528v103.478927z" fill="#ECECEC" p-id="5325"></path><path d="M171.778289 273.29553l1.30779 1.111622zM447.00281 436.998212a88.798978 88.798978 0 0 1 114.039336 0h406.068965V273.29553h-114.660536a88.668199 88.668199 0 0 1-148.238059 0H303.276628a88.766284 88.766284 0 0 1-148.303448 0H41.097318v163.702682z" fill="#EBEBEB" p-id="5326"></path><path d="M592.886845 505.199489a90.041379 90.041379 0 0 1-0.588505 10.168072c0.261558 2.909834 0.294253 5.590805 0.294253 8.566028a89.027842 89.027842 0 0 1-44.137931 76.767305H967.111111v-163.702682H561.042146a88.668199 88.668199 0 0 1 31.844699 68.201277zM458.805619 600.700894a88.798978 88.798978 0 0 1-43.810983-76.767305 87.687356 87.687356 0 0 1 0.326948-9.05645 88.766284 88.766284 0 0 0 32.596679 59.210217 88.733589 88.733589 0 0 1-0.784674-137.089144H41.097318v163.702682z" fill="#EAEAEA" p-id="5327"></path><path d="M141.764496 764.403576a88.929757 88.929757 0 0 1 175.145849 0h374.093486a88.929757 88.929757 0 0 1 175.178544 0h100.928736v-163.702682H548.421967a88.570115 88.570115 0 0 1-89.616348 0H41.097318v163.702682z" fill="#E9E8E8" p-id="5328"></path><path d="M947.298084 929.348659a115.118263 115.118263 0 0 0 19.813027-64.768327V764.403576h-100.928736a88.275862 88.275862 0 0 1 0.75198 25.6c0.261558 2.909834 0.294253 5.590805 0.294253 8.566028a88.798978 88.798978 0 1 1-177.565262 0 87.687356 87.687356 0 0 1 0.326948-9.056449 88.53742 88.53742 0 0 0 17.262835 43.451341 88.700894 88.700894 0 0 1-16.347382-68.659004H316.910345a88.014304 88.014304 0 0 1 0.751979 25.6c0.261558 2.909834 0.294253 5.590805 0.294253 8.566028a88.798978 88.798978 0 1 1-177.565262 0 87.687356 87.687356 0 0 1 0.326948-9.05645 88.766284 88.766284 0 0 0 32.269732 59.046744 88.570115 88.570115 0 0 1-31.223499-84.156322H41.097318v100.144061a115.118263 115.118263 0 0 0 19.813027 64.768327z" fill="#E8E7E7" p-id="5329"></path><path d="M946.415326 930.558365l0.850064-1.209706H60.94304l0.850063 1.209706z" fill="#E7E6E6" p-id="5330"></path><path d="M945.565262 931.800766l0.850064-1.209706H61.793103l0.850064 1.209706z" fill="#E6E5E5" p-id="5331"></path><path d="M944.682503 932.977778l0.850064-1.209706h-882.758621l0.850064 1.209706z" fill="#E5E4E4" p-id="5332"></path><path d="M943.799745 934.220179l0.882758-1.209706H63.525926l0.882759 1.209706z" fill="#E4E3E3" p-id="5333"></path><path d="M942.851596 935.429885l0.948149-1.209706H64.408685l0.948148 1.209706z" fill="#E3E2E2" p-id="5334"></path><path d="M941.903448 936.639591l0.948148-1.209706H65.389527l0.948149 1.209706z" fill="#E2E1E1" p-id="5335"></path><path d="M940.922605 937.849298l0.948149-1.209707H66.337676l0.948148 1.209707z" fill="#E1E0E0" p-id="5336"></path><path d="M939.909068 939.059004l1.046232-1.209706H67.285824l1.046232 1.209706z" fill="#E0DFDF" p-id="5337"></path><path d="M938.862835 940.301405l1.046233-1.209706H68.332056l1.046233 1.209706z" fill="#DFDEDE" p-id="5338"></path><path d="M937.783908 941.609195l1.046232-1.209706H69.378289l1.046232 1.209706z" fill="#DEDDDD" p-id="5339"></path><path d="M936.704981 942.720817l1.078927-1.209706H70.424521l1.078927 1.209706z" fill="#DDDCDC" p-id="5340"></path><path d="M935.560664 943.930524l1.144317-1.209707H71.503448l1.144317 1.209707z" fill="#DCDBDB" p-id="5341"></path><path d="M934.383653 945.14023l1.144316-1.209706H72.68046l1.144317 1.209706z" fill="#DBDADA" p-id="5342"></path><path d="M933.239336 946.382631l1.177011-1.209706H73.824777l1.177011 1.209706z" fill="#DAD9D9" p-id="5343"></path><path d="M931.800766 947.592337l1.275096-1.209706H75.001788l1.275096 1.209706z" fill="#D9D8D8" p-id="5344"></path><path d="M930.689144 948.802043l1.275096-1.209706H76.276884l1.275096 1.209706z" fill="#D8D7D7" p-id="5345"></path><path d="M929.414049 950.01175l1.275095-1.209707H77.55198l1.275095 1.209707z" fill="#D7D6D6" p-id="5346"></path><path d="M928.008174 951.221456l1.37318-1.209706H78.827075l1.37318 1.209706z" fill="#D6D5D5" p-id="5347"></path><path d="M926.602299 952.463857l1.405875-1.209706H80.200255l1.405875 1.209706z" fill="#D5D4D4" p-id="5348"></path><path d="M925.261814 953.673563l1.405874-1.209706H81.736909l1.405875 1.209706z" fill="#D4D3D3" p-id="5349"></path><path d="M923.65977 954.883269l1.536654-1.209706H83.012005l1.536654 1.209706z" fill="#D3D2D2" p-id="5350"></path><path d="M921.992337 956.092976l1.536654-1.209707H84.548659l1.536654 1.209707z" fill="#D2D1D1" p-id="5351"></path><path d="M920.553768 957.302682l1.569348-1.209706H86.085313l1.569349 1.209706z" fill="#D1D0D0" p-id="5352"></path><path d="M918.722861 958.545083l1.700128-1.209706H87.654662l1.700127 1.209706z" fill="#D0CFCF" p-id="5353"></path><path d="M917.153512 959.754789l1.700128-1.209706H89.354789l1.700128 1.209706z" fill="#CFCECE" p-id="5354"></path><path d="M915.453384 960.964496l1.798212-1.209707H91.087612l1.798212 1.209707z" fill="#CDCCCD" p-id="5355"></path><path d="M913.459004 962.174202l1.896296-1.209706H92.885824l1.896296 1.209706z" fill="#CCCBCC" p-id="5356"></path><path d="M911.562708 963.383908l1.896296-1.209706H94.814815l1.896296 1.209706z" fill="#CBCACB" p-id="5357"></path><path d="M909.437548 964.49553l2.092465-1.209706H96.678416l2.092465 1.209706z" fill="#CAC9CA" p-id="5358"></path><path d="M907.345083 965.836015l2.12516-1.209706h-810.830141l2.12516 1.209706z" fill="#C9C8C9" p-id="5359"></path><path d="M905.05645 967.045722l2.288633-1.209707H100.896041l2.288633 1.209707z" fill="#C8C7C8" p-id="5360"></path><path d="M902.669732 968.255428l2.386718-1.209706H103.184674l2.386718 1.209706z" fill="#C7C6C7" p-id="5361"></path><path d="M900.11954 969.465134l2.550192-1.209706H105.538697l2.550192 1.209706z" fill="#C6C5C6" p-id="5362"></path><path d="M897.43857 970.707535l2.68097-1.209706H108.088889l2.680971 1.209706z" fill="#C5C4C5" p-id="5363"></path><path d="M894.463346 971.917241l2.942529-1.209706H110.802554l2.942529 1.209706z" fill="#C4C3C4" p-id="5364"></path><path d="M891.390038 973.126948l3.073308-1.209707H113.745083l3.073308 1.209707z" fill="#C3C2C3" p-id="5365"></path><path d="M120.414815 974.303959h767.411494l3.563729-1.209706H116.818391l0.751979 0.261558z" fill="#C2C1C2" p-id="5366"></path><path d="M120.414815 974.303959l3.923371 1.209706h759.564751l3.923372-1.209706z" fill="#C1C0C1" p-id="5367"></path><path d="M128.784674 976.788761H879.489144c1.503959-0.359642 2.975223-0.784674 4.479183-1.209706H124.240102c1.569349 0.425032 3.040613 0.817369 4.544572 1.209706z" fill="#C0BFC0" p-id="5368"></path><path d="M134.2447 977.998467h739.751724q2.74636-0.555811 5.460026-1.209706H128.784674q2.713665 0.784674 5.460026 1.209706z" fill="#BFBEBF" p-id="5369"></path><path d="M141.829885 979.208174H866.411239c2.550192-0.326948 5.100383-0.719285 7.585185-1.209707H134.2447c2.484802 0.490421 5.034994 0.882759 7.585185 1.209707z" fill="#BEBDBE" p-id="5370"></path><path d="M156.738697 980.189017h694.731035a116.687612 116.687612 0 0 0 14.908812-0.980843H141.829885a116.687612 116.687612 0 0 0 14.908812 0.980843z" fill="#BDBCBD" p-id="5371"></path><path d="M592.265645 514.877139v0.490422a90.041379 90.041379 0 0 0 0.588506-10.168072 89.550958 89.550958 0 1 0-0.621201 9.808429zM228.863346 294.252874a89.452874 89.452874 0 0 0 88.766284-78.957855V215.785441a90.041379 90.041379 0 0 0 0.588505-10.168072 88.929757 88.929757 0 1 0-146.505236 67.678161l1.307791 1.111622A88.504725 88.504725 0 0 0 228.863346 294.252874zM709.312899 261.394636l0.980843 1.209706 0.948148 1.111622a89.093231 89.093231 0 0 0 155.65977-48.38825v0.490421a90.041379 90.041379 0 0 0 0.588506-10.168071 88.929757 88.929757 0 1 0-160.204342 53.128991c0.653895 0.915453 1.340485 1.765517 2.027075 2.615581zM229.321073 690.905747a88.798978 88.798978 0 1 0 88.275862 98.607408v0.490421a88.014304 88.014304 0 0 0-0.75198-25.6 88.897063 88.897063 0 0 0-87.523882-73.497829zM778.593103 690.905747a88.962452 88.962452 0 0 0-71.372669 142.058749c0.653895 0.882759 1.340485 1.732822 2.027076 2.550191l0.980842 1.209706 0.948149 1.111622a89.093231 89.093231 0 0 0 155.65977-48.38825v0.490421a88.275862 88.275862 0 0 0-0.75198-25.6 88.668199 88.668199 0 0 0-87.491188-73.432439z" fill="#DB2E27" p-id="5372"></path><path d="M592.592593 523.933589c0-2.942529 0-5.623499-0.294253-8.566028v-0.490422A89.452874 89.452874 0 0 1 503.499361 593.834994a88.897063 88.897063 0 0 1-88.275862-78.957855 87.687356 87.687356 0 0 0-0.326947 9.05645 88.798978 88.798978 0 1 0 177.565262 0zM778.135377 868.471009a88.668199 88.668199 0 0 1-67.056961-30.569604l-0.948148-1.111622-0.980843-1.209706c-0.68659-0.850064-1.37318-1.700128-2.027075-2.550192a88.53742 88.53742 0 0 1-17.262835-43.51673 87.687356 87.687356 0 0 0-0.326948 9.056449 88.798978 88.798978 0 1 0 177.565262 0c0-2.942529 0-5.623499-0.294253-8.566028v-0.490421A89.452874 89.452874 0 0 1 778.135377 868.471009zM228.863346 868.471009a88.897063 88.897063 0 0 1-88.275862-78.957854 87.687356 87.687356 0 0 0-0.326948 9.056449 88.798978 88.798978 0 1 0 177.565262 0c0-2.942529 0-5.623499-0.294253-8.566028v-0.490421A89.452874 89.452874 0 0 1 228.863346 868.471009zM317.662324 215.785441v-0.490422A89.452874 89.452874 0 0 1 228.863346 294.252874a88.504725 88.504725 0 0 1-55.940741-19.845722l-1.30779-1.111622A88.733589 88.733589 0 0 1 140.587484 215.295019a87.687356 87.687356 0 0 0-0.326948 9.05645 88.798978 88.798978 0 1 0 177.565262 0c0.130779-2.975223 0.098084-5.656194-0.163474-8.566028zM866.934355 215.785441v-0.490422a89.093231 89.093231 0 0 1-155.65977 48.38825l-0.948148-1.111621-0.980843-1.209707c-0.68659-0.850064-1.37318-1.700128-2.027075-2.582886a88.53742 88.53742 0 0 1-17.459004-43.484036 87.687356 87.687356 0 0 0-0.326948 9.05645 88.798978 88.798978 0 0 0 177.565262 0c0.130779-2.975223 0.098084-5.656194-0.163474-8.566028z" fill="#FFFFFF" p-id="5373"></path></svg>