<?xml version="1.0" standalone="no"?><!DOCTYPE svg PUBLIC "-//W3C//DTD SVG 1.1//EN" "http://www.w3.org/Graphics/SVG/1.1/DTD/svg11.dtd"><svg t="1556791197915" class="icon" style="" viewBox="0 0 1043 1024" version="1.1" xmlns="http://www.w3.org/2000/svg" p-id="5491" xmlns:xlink="http://www.w3.org/1999/xlink" width="48.890625" height="48"><defs><style type="text/css"></style></defs><path d="M921.6 74.871009l1.340485 1.046232c2.092465 1.634738 4.11954 3.269476 6.081226 5.100384s3.563729 3.269476 5.263857 5.100383 3.269476 3.269476 4.675352 5.100383 2.844444 3.269476 4.184929 5.100383 2.517497 3.269476 3.727203 5.100383a115.118263 115.118263 0 0 1 20.238059 65.389528v694.763729a115.118263 115.118263 0 0 1-19.813027 64.768327l-0.850064 1.209706-0.850063 1.209706-0.850064 1.209707-0.882759 1.209706-0.948148 1.209706-0.948148 1.209706-0.948148 1.209707-1.046233 1.209706-1.046232 1.209706-1.046233 1.209706-1.078927 1.209707-1.144317 1.209706-1.144316 1.209706-1.177012 1.209706-1.275096 1.209707-1.275095 1.209706-1.275096 1.209706-1.37318 1.209706-1.405875 1.209707-1.405875 1.209706-1.536654 1.209706-1.536654 1.209706-1.569348 1.209707-1.700128 1.209706-1.700128 1.209706-1.830907 1.37318-1.896296 1.209707-1.896296 1.209706-2.092465 1.209706-2.12516 1.209706-2.288633 1.209707-2.386718 1.209706-2.550191 1.209706-2.680971 1.209706-2.942529 1.209707-3.073308 1.209706-3.563729 1.209706-3.923372 1.209706c-1.471264 0.425032-2.975223 0.850064-4.479182 1.209707s-3.629119 0.850064-5.460026 1.209706c-2.517497 0.490421-5.034994 0.882759-7.585185 1.209706a116.687612 116.687612 0 0 1-14.908812 0.980843H156.738697a116.687612 116.687612 0 0 1-14.908812-0.980843c-2.550192-0.326948-5.100383-0.719285-7.585185-1.209706q-2.74636-0.555811-5.460026-1.209706c-1.503959-0.359642-2.975223-0.784674-4.479182-1.209707l-3.923372-1.209706-2.81175-0.948148a115.772158 115.772158 0 0 0 73.43244 26.155811h694.763729a116.458748 116.458748 0 0 0 116.327969-116.327969V185.542784a116.524138 116.524138 0 0 0-80.494508-110.671775z" fill="#888A85" p-id="5492"></path><path d="M851.469732 51.2H156.738697A116.622222 116.622222 0 0 0 125.417114 55.581098H882.758621a115.772158 115.772158 0 0 0-31.288889-4.381098z" fill="#F7F6F6" p-id="5493"></path><path d="M882.758621 55.581098H125.417114a115.249042 115.249042 0 0 0-14.581865 5.100383h786.374457A114.82401 114.82401 0 0 0 882.758621 55.581098z" fill="#F6F5F5" p-id="5494"></path><path d="M897.209706 60.616092H110.835249a115.183653 115.183653 0 0 0-10.396935 5.100383h807.135632a115.052874 115.052874 0 0 0-10.36424-5.100383z" fill="#F5F4F4" p-id="5495"></path><path d="M915.943806 70.816858c-2.713665-1.830907-5.49272-3.531034-8.36986-5.100383H100.438314c-2.877139 1.602043-5.688889 3.269476-8.402554 5.100383z" fill="#F4F3F3" p-id="5496"></path><path d="M922.940485 75.949936l-1.340485-1.046232c-1.830907-1.405875-3.694508-2.779055-5.623499-4.054151h-823.908046c-2.386718 1.602043-4.708046 3.269476-6.963985 5.100383z" fill="#F3F2F2" p-id="5497"></path><path d="M929.021711 81.050319c-1.961686-1.765517-4.021456-3.465645-6.081226-5.100383H85.006386c-2.092465 1.634738-4.11954 3.269476-6.113921 5.100383z" fill="#F1F1F1" p-id="5498"></path><path d="M934.285568 86.150702c-1.700128-1.765517-3.465645-3.465645-5.263857-5.100383h-850.063857c-1.830907 1.634738-3.563729 3.269476-5.263857 5.100383z" fill="#F0F0F0" p-id="5499"></path><path d="M938.993614 91.28378q-2.255939-2.615581-4.675351-5.100383H73.693997q-2.419413 2.484802-4.675351 5.100383z" fill="#EFEFEF" p-id="5500"></path><path d="M943.145849 96.384163q-2.027075-2.615581-4.184929-5.100383H69.018646q-2.157854 2.484802-4.18493 5.100383z" fill="#EEEEEE" p-id="5501"></path><path d="M946.873052 101.353768c-1.209706-1.732822-2.452107-3.43295-3.727203-5.100384H64.833716c-1.275096 1.667433-2.517497 3.269476-3.727203 5.100384z" fill="#EDEDED" p-id="5502"></path><path d="M160.204342 270.320307a86.575734 86.575734 0 0 1-9.808429-40.443423 85.333333 85.333333 0 0 1 0-8.827586 86.346871 86.346871 0 0 0 22.886335 49.271009 86.47765 86.47765 0 1 1 149.709323-58.850575 87.589272 87.589272 0 0 1-0.588506 10.004598c0.261558 2.909834 0.294253 5.590805 0.294253 8.533333a85.889144 85.889144 0 0 1-10.102682 40.443423h384.228863A86.510345 86.510345 0 0 1 684.432184 225.59387a85.333333 85.333333 0 0 1 0.294253-8.794892 86.47765 86.47765 0 0 0 27.136654 53.619413h0.228863a86.47765 86.47765 0 1 1 145.393614-63.460537 87.589272 87.589272 0 0 1-0.588505 10.004598c0.261558 2.909834 0.294253 5.590805 0.294252 8.533333a85.921839 85.921839 0 0 1-12.554789 44.824522h122.474585V166.743295a115.118263 115.118263 0 0 0-20.238059-65.389527H61.106513a114.431673 114.431673 0 0 0-20.009195 65.389527v103.577012z" fill="#ECECEC" p-id="5503"></path><path d="M770.81175 293.500894a86.183397 86.183397 0 0 1-58.850575-23.180587h-0.228863a86.085313 86.085313 0 0 0 58.850574 23.180587zM236.317752 297.849298A86.314176 86.314176 0 0 1 173.282248 270.320307a86.216092 86.216092 0 0 0 63.035504 27.528991z" fill="#EBEBEB" p-id="5504"></path><path d="M187.275607 434.022989a86.183397 86.183397 0 0 1 104.623244 0h421.402809a86.216092 86.216092 0 0 1 115.314432 0h138.495019V270.320307h-122.474585a86.314176 86.314176 0 0 1-147.780332 0H312.75811a86.314176 86.314176 0 0 1-152.717242 0H41.097318v163.702682z" fill="#EBEBEB" p-id="5505"></path><path d="M684.432184 516.577267a85.333333 85.333333 0 0 1 0.294253-8.794892 86.346871 86.346871 0 0 0 31.648531 57.837038 86.314176 86.314176 0 0 1-3.040613-131.432951H292.062324a86.444955 86.444955 0 0 1 34.133334 68.659004c0 2.779055-0.163474 5.49272-0.425032 8.173691v5.656194a86.739208 86.739208 0 0 1-56.365773 81.083014h470.804598A86.346871 86.346871 0 0 1 684.432184 516.577267zM857.485568 498.431673a87.621967 87.621967 0 0 1-0.588505 9.808429c0.261558 2.844444 0.261558 5.460026 0.261558 8.30447a86.739208 86.739208 0 0 1-56.365773 81.083014h166.318263v-163.604597h-138.495019a86.346871 86.346871 0 0 1 28.869476 64.408684zM209.246488 597.72567A86.346871 86.346871 0 0 1 153.142273 516.577267c0-2.680971 0-5.133078 0.228864-7.748659 0-2.027075-0.228863-4.054151-0.228864-6.113921a86.444955 86.444955 0 0 1 34.133334-68.659004H41.097318v163.702682z" fill="#EAEAEA" p-id="5506"></path><path d="M153.469221 761.428352a86.510345 86.510345 0 0 1 172.399489 0h358.694253a86.510345 86.510345 0 0 1 172.857216 0h109.690932v-163.702682h-166.285568a86.379566 86.379566 0 0 1-60.387229 0h-470.804598a86.379566 86.379566 0 0 1-60.387228 0H41.097318v163.702682z" fill="#E9E8E8" p-id="5507"></path><path d="M947.298084 926.340741a115.118263 115.118263 0 0 0 19.813027-64.768327v-100.144062h-109.723627v4.18493a87.621967 87.621967 0 0 1-0.588506 9.808429c0.261558 2.844444 0.261558 5.460026 0.261558 8.30447a86.379566 86.379566 0 1 1-172.759131 0 85.333333 85.333333 0 0 1 0.294253-8.794891 86.346871 86.346871 0 0 0 31.615836 57.608174 86.412261 86.412261 0 0 1-31.910089-67.024266v-4.18493H325.86871c0.196169 2.386718 0.326948 4.773436 0.326948 7.192848a87.85083 87.85083 0 0 1-0.457727 8.925671v6.2447a86.379566 86.379566 0 1 1-172.759132 0c0-2.942529 0-5.590805 0.294253-8.500639-0.163474-2.223244-0.294253-4.446488-0.294253-6.538953s0-4.838825 0.326948-7.192848H41.097318v100.144062a115.118263 115.118263 0 0 0 19.813027 64.768327z" fill="#E8E7E7" p-id="5508"></path><path d="M946.415326 927.550447l0.850064-1.209706H60.94304l0.850063 1.209706z" fill="#E7E6E6" p-id="5509"></path><path d="M945.565262 928.792848l0.850064-1.209706H61.793103l0.850064 1.209706z" fill="#E6E5E5" p-id="5510"></path><path d="M944.682503 930.002554l0.850064-1.209706h-882.758621l0.850064 1.209706z" fill="#E5E4E4" p-id="5511"></path><path d="M943.799745 931.212261l0.882758-1.209707H63.525926l0.882759 1.209707z" fill="#E4E3E3" p-id="5512"></path><path d="M942.851596 932.421967l0.948149-1.209706H64.408685l0.948148 1.209706z" fill="#E3E2E2" p-id="5513"></path><path d="M941.903448 933.631673l0.948148-1.209706H65.389527l0.948149 1.209706z" fill="#E2E1E1" p-id="5514"></path><path d="M940.922605 934.874074l0.948149-1.209706H66.337676l0.948148 1.209706z" fill="#E1E0E0" p-id="5515"></path><path d="M939.909068 936.08378l1.046232-1.209706H67.285824l1.046232 1.209706z" fill="#E0DFDF" p-id="5516"></path><path d="M938.862835 937.293487l1.046233-1.209707H68.332056l1.046233 1.209707z" fill="#DFDEDE" p-id="5517"></path><path d="M937.783908 938.503193l1.046232-1.209706H69.378289l1.046232 1.209706z" fill="#DEDDDD" p-id="5518"></path><path d="M936.704981 939.712899l1.078927-1.209706H70.424521l1.078927 1.209706z" fill="#DDDCDC" p-id="5519"></path><path d="M935.560664 940.9553l1.144317-1.209706H71.503448l1.144317 1.209706z" fill="#DCDBDB" p-id="5520"></path><path d="M934.383653 942.165006l1.144316-1.209706H72.68046l1.144317 1.209706z" fill="#DBDADA" p-id="5521"></path><path d="M933.239336 943.374713l1.177011-1.209707H73.824777l1.177011 1.209707z" fill="#DAD9D9" p-id="5522"></path><path d="M931.800766 944.584419l1.275096-1.209706H75.001788l1.275096 1.209706z" fill="#D9D8D8" p-id="5523"></path><path d="M930.689144 945.794125l1.275096-1.209706H76.276884l1.275096 1.209706z" fill="#D8D7D7" p-id="5524"></path><path d="M929.414049 947.036526l1.275095-1.209706H77.55198l1.275095 1.209706z" fill="#D7D6D6" p-id="5525"></path><path d="M928.008174 948.148148l1.37318-1.209706H78.827075l1.37318 1.209706z" fill="#D6D5D5" p-id="5526"></path><path d="M926.602299 949.455939l1.405875-1.209707H80.200255l1.405875 1.209707z" fill="#D5D4D4" p-id="5527"></path><path d="M925.261814 950.665645l1.405874-1.209706H81.736909l1.405875 1.209706z" fill="#D4D3D3" p-id="5528"></path><path d="M923.65977 951.875351l1.536654-1.209706H83.012005l1.536654 1.209706z" fill="#D3D2D2" p-id="5529"></path><path d="M921.992337 953.117752l1.536654-1.209706H84.548659l1.536654 1.209706z" fill="#D2D1D1" p-id="5530"></path><path d="M920.553768 954.327458l1.569348-1.209706H86.085313l1.569349 1.209706z" fill="#D1D0D0" p-id="5531"></path><path d="M918.722861 955.537165l1.700128-1.209707H87.654662l1.700127 1.209707z" fill="#D0CFCF" p-id="5532"></path><path d="M917.153512 956.746871l1.700128-1.209706H89.354789l1.700128 1.209706z" fill="#CFCECE" p-id="5533"></path><path d="M915.453384 957.956577l1.798212-1.209706H91.087612l1.798212 1.209706z" fill="#CDCCCD" p-id="5534"></path><path d="M913.459004 959.198978l1.99438-1.242401H92.885824l1.896296 1.209707z" fill="#CCCBCC" p-id="5535"></path><path d="M911.562708 960.408685l1.896296-1.209707H94.814815l1.896296 1.209707z" fill="#CBCACB" p-id="5536"></path><path d="M909.437548 961.618391l2.092465-1.209706H96.678416l2.092465 1.209706z" fill="#CAC9CA" p-id="5537"></path><path d="M907.345083 962.828097l2.12516-1.209706h-810.830141l2.12516 1.209706z" fill="#C9C8C9" p-id="5538"></path><path d="M905.05645 964.037803l2.288633-1.209706H100.896041l2.288633 1.209706z" fill="#C8C7C8" p-id="5539"></path><path d="M902.669732 965.280204l2.386718-1.209706H103.184674l2.386718 1.209706z" fill="#C7C6C7" p-id="5540"></path><path d="M900.11954 966.489911l2.550192-1.209707H105.538697l2.550192 1.209707z" fill="#C6C5C6" p-id="5541"></path><path d="M897.43857 967.765006l2.68097-1.209706H108.088889l2.680971 1.209706z" fill="#C5C4C5" p-id="5542"></path><path d="M894.463346 968.909323l2.942529-1.209706H110.802554l2.942529 1.209706z" fill="#C4C3C4" p-id="5543"></path><path d="M891.390038 970.151724l3.073308-1.209706H113.745083l3.073308 1.209706z" fill="#C3C2C3" p-id="5544"></path><path d="M120.414815 971.36143h767.411494l3.563729-1.209706H116.818391l0.751979 0.261558z" fill="#C2C1C2" p-id="5545"></path><path d="M120.414815 971.36143l3.923371 1.209707h759.564751l3.923372-1.209707z" fill="#C1C0C1" p-id="5546"></path><path d="M128.784674 973.780843H879.489144c1.503959-0.359642 2.975223-0.784674 4.479183-1.209706H124.240102c1.569349 0.425032 3.040613 0.850064 4.544572 1.209706z" fill="#C0BFC0" p-id="5547"></path><path d="M134.2447 974.990549h739.751724q2.74636-0.555811 5.460026-1.209706H128.784674q2.713665 0.523116 5.460026 1.209706z" fill="#BFBEBF" p-id="5548"></path><path d="M141.829885 976.23295H866.411239c2.550192-0.326948 5.100383-0.719285 7.585185-1.209706H134.2447c2.484802 0.457727 5.034994 0.850064 7.585185 1.209706z" fill="#BEBDBE" p-id="5549"></path><path d="M156.738697 977.213793h694.731035a116.687612 116.687612 0 0 0 14.908812-0.980843H141.829885a116.687612 116.687612 0 0 0 14.908812 0.980843z" fill="#BDBCBD" p-id="5550"></path><path d="M185.150447 565.619413a86.085313 86.085313 0 0 0 54.207918 19.126436 87.000766 87.000766 0 0 0 86.216092-76.8V511.084547c0.261558-2.680971 0.425032-5.427331 0.425032-8.173691a86.510345 86.510345 0 0 0-173.053384 0c0 2.05977 0 4.086845 0.228863 6.113921v-1.078928A86.346871 86.346871 0 0 0 185.150447 565.619413zM684.432184 498.431673a86.510345 86.510345 0 0 0 172.432184 9.416092v0.490421a87.621967 87.621967 0 0 0 0.588506-9.808429 86.510345 86.510345 0 0 0-173.053385 0zM236.481226 297.849298a87.000766 87.000766 0 0 0 86.052618-76.8v0.294252a87.589272 87.589272 0 0 0 0.588506-10.004597 86.444955 86.444955 0 1 0-86.641124 86.510345zM856.897063 216.700894v0.294253a87.589272 87.589272 0 0 0 0.588505-10.004598 87.098851 87.098851 0 1 0-0.6212 9.808429zM239.652618 682.110856a86.706513 86.706513 0 0 0-86.216092 79.317496c-0.196169 2.386718-0.326948 4.773436-0.326947 7.192849s0 4.479183 0.294252 6.538952v-0.326947a86.641124 86.641124 0 0 0 172.137931 0v2.550191a87.85083 87.85083 0 0 0 0.457727-8.92567c0-2.419413 0-4.838825-0.326947-7.192848a86.706513 86.706513 0 0 0-86.019924-79.154023zM770.975223 679.070243a86.706513 86.706513 0 0 0-86.41226 82.358109v4.18493a86.510345 86.510345 0 0 0 172.3341 9.252618v0.490422a87.621967 87.621967 0 0 0 0.588505-9.808429v-4.18493a86.706513 86.706513 0 0 0-86.510345-82.29272z" p-id="5551"></path><path d="M325.901405 516.577267v-5.656194-2.648276-0.490422a87.000766 87.000766 0 0 1-86.216092 76.8 86.510345 86.510345 0 0 1-85.921839-76.8v1.078928c-0.196169 2.615581-0.228863 5.067688-0.228864 7.748659a86.379566 86.379566 0 1 0 172.759132 0zM857.191315 516.577267c0-2.877139 0-5.49272-0.261558-8.30447v-0.490422a87.000766 87.000766 0 0 1-86.216092 76.8 86.47765 86.47765 0 0 1-85.921839-76.8 85.333333 85.333333 0 0 0-0.294253 8.794892 86.379566 86.379566 0 1 0 172.759132 0zM770.648276 851.829374A86.47765 86.47765 0 0 1 684.759132 774.8659a85.333333 85.333333 0 0 0-0.294253 8.794892 86.379566 86.379566 0 1 0 172.759131 0c0-2.877139 0-5.49272-0.261558-8.30447V774.8659a87.000766 87.000766 0 0 1-86.314176 76.963474zM239.358365 851.829374A86.444955 86.444955 0 0 1 153.436526 774.8659v0.326948c-0.261558 2.909834-0.294253 5.55811-0.294253 8.500639a86.379566 86.379566 0 1 0 172.759132 0v-6.2447-2.550192a87.000766 87.000766 0 0 1-86.54304 76.930779zM322.566539 221.310856v-0.294253a87.000766 87.000766 0 0 1-86.085313 76.832695A86.739208 86.739208 0 0 1 150.395913 221.049298a85.333333 85.333333 0 0 0-0.294253 8.794891 86.379566 86.379566 0 0 0 172.759132 0c0-2.942529-0.032695-5.590805-0.294253-8.533333zM856.897063 216.962452v-0.294253a87.000766 87.000766 0 0 1-86.052619 76.8 86.771903 86.771903 0 0 1-85.921839-76.8 85.333333 85.333333 0 0 0-0.294253 8.794892 86.379566 86.379566 0 0 0 172.759132 0c-0.196169-2.909834-0.196169-5.590805-0.490421-8.500639z" fill="#FFFFFF" p-id="5552"></path></svg>