<?xml version="1.0" standalone="no"?><!DOCTYPE svg PUBLIC "-//W3C//DTD SVG 1.1//EN" "http://www.w3.org/Graphics/SVG/1.1/DTD/svg11.dtd"><svg t="1556791174543" class="icon" style="" viewBox="0 0 1040 1024" version="1.1" xmlns="http://www.w3.org/2000/svg" p-id="4954" xmlns:xlink="http://www.w3.org/1999/xlink" width="48.75" height="48"><defs><style type="text/css"></style></defs><path d="M932.947109 51.2993l1.380099 1.07715c2.154301 1.683048 4.241281 3.366096 6.260938 5.25111s3.669044 3.366096 5.419415 5.251109 3.366096 3.366096 4.813517 5.25111 2.928503 3.366096 4.308602 5.251109 2.591894 3.366096 3.837349 5.25111a118.520233 118.520233 0 0 1 20.836133 67.321915v715.295356a118.520233 118.520233 0 0 1-20.465862 66.682357l-0.875185 1.245456-0.875185 1.245455-0.875185 1.245456-0.908846 1.245455-0.976167 1.245455-0.976168 1.245456-0.976168 1.245455-1.077151 1.245456-1.07715 1.245455-1.077151 1.245456-1.110812 1.245455-1.178133 1.245455-1.178134 1.245456-1.211794 1.245455-1.312777 1.245456-1.312778 1.245455-1.312777 1.245456-1.41376 1.245455-1.447422 1.245456-1.447421 1.245455-1.582065 1.245455-1.582065 1.245456-1.615726 1.245455-1.75037 1.245456-1.750369 1.245455-1.851353 1.245456-1.952336 1.245455-1.952335 1.245456-2.154302 1.245455-2.187962 1.245455-2.356267 1.245456-2.45725 1.245455-2.625555 1.245456-2.760198 1.245455-3.029486 1.245456-3.16413 1.245455-3.669045 1.245456-4.039315 1.245455c-1.514743 0.437592-3.063147 0.875185-4.611551 1.245455s-3.736366 0.875185-5.62138 1.245456c-2.591894 0.504914-5.183788 0.908846-7.809342 1.245455a120.16962 120.16962 0 0 1-15.349397 1.009829H145.516321a120.16962 120.16962 0 0 1-15.349397-1.009829c-2.625555-0.33661-5.251109-0.740541-7.809342-1.245455q-2.82752-0.572236-5.62138-1.245456c-1.548404-0.370271-3.063147-0.807863-4.611551-1.245455l-4.039315-1.245455-2.894843-0.976168a119.193452 119.193452 0 0 0 75.602512 26.928766h715.295355a119.900332 119.900332 0 0 0 119.765688-119.765688V165.241642a119.967654 119.967654 0 0 0-82.906939-113.942342z" fill="#888A85" p-id="4955"></path><path d="M860.778015 26.928766H145.516321a120.068637 120.068637 0 0 0-32.247198 4.409586h779.621446A119.193452 119.193452 0 0 0 860.778015 26.928766z" fill="#F7F6F6" p-id="4956"></path><path d="M892.890569 31.338352H113.269123a118.654877 118.654877 0 0 0-15.012787 5.251109H907.836034a118.217284 118.217284 0 0 0-14.945465-5.251109z" fill="#F6F5F5" p-id="4957"></path><path d="M907.836034 36.623122H98.256336A118.654877 118.654877 0 0 0 87.518491 41.874232h831.021728a118.520233 118.520233 0 0 0-10.704185-5.25111z" fill="#F5F4F4" p-id="4958"></path><path d="M927.157424 47.125341c-2.79386-1.885014-5.655041-3.635383-8.617205-5.251109H87.518491c-2.962164 1.649387-5.857007 3.366096-8.650867 5.251109z" fill="#F4F3F3" p-id="4959"></path><path d="M934.327208 52.37645l-1.380099-1.07715c-1.885014-1.447421-3.803688-2.861181-5.789685-4.173959h-848.256139c-2.45725 1.649387-4.847178 3.366096-7.169784 5.251109z" fill="#F3F2F2" p-id="4960"></path><path d="M940.621807 57.661221c-2.019657-1.817692-4.140298-3.568062-6.260938-5.25111H71.69784c-2.154301 1.683048-4.241281 3.366096-6.294599 5.25111z" fill="#F1F1F1" p-id="4961"></path><path d="M946.041222 62.91233c-1.75037-1.817692-3.568062-3.568062-5.419415-5.251109h-875.184905c-1.885014 1.683048-3.669044 3.366096-5.419414 5.251109z" fill="#F0F0F0" p-id="4962"></path><path d="M950.854739 68.16344q-2.322606-2.692877-4.813517-5.25111H59.983827q-2.490911 2.558233-4.813517 5.25111z" fill="#EFEFEF" p-id="4963"></path><path d="M955.163341 73.44821q-2.086979-2.692877-4.308602-5.251109H55.17031q-2.221623 2.558233-4.308603 5.251109z" fill="#EEEEEE" p-id="4964"></path><path d="M959.00069 78.69932c-1.245455-1.784031-2.524572-3.534401-3.837349-5.25111H50.895368c-1.312777 1.716709-2.591894 3.366096-3.837349 5.25111z" fill="#EDEDED" p-id="4965"></path><path d="M702.80714 252.457184a91.827093 91.827093 0 0 1-8.314257-38.30617 90.379672 90.379672 0 0 1 0.33661-9.324085 91.288518 91.288518 0 0 0 20.196575 47.630255h0.235626a91.625127 91.625127 0 1 1 162.582427-57.930508 92.7696 92.7696 0 0 1-0.639558 10.603201c0.302949 3.096808 0.302949 5.924329 0.302948 9.021137A90.884586 90.884586 0 0 1 869.02495 252.457184h110.778212V145.987574a118.520233 118.520233 0 0 0-20.836133-67.321915H47.125341a117.813353 117.813353 0 0 0-20.600506 67.321915V252.457184z" fill="#ECECEC" p-id="4966"></path><path d="M785.815062 286.118142a91.524145 91.524145 0 0 1-70.688012-33.660958h-0.235626a91.423162 91.423162 0 0 0 70.923638 33.660958z" fill="#EBEBEB" p-id="4967"></path><path d="M462.80451 421.064922a91.254857 91.254857 0 0 1 80.786299 0h436.246014V252.457184h-110.811873a91.423162 91.423162 0 0 1-166.21781 0H26.457513v168.540416z" fill="#EBEBEB" p-id="4968"></path><path d="M594.789126 503.298642a92.7696 92.7696 0 0 1-0.639558 10.603202c0.302949 3.096808 0.302949 5.924329 0.302948 9.021137a91.389501 91.389501 0 0 1-28.948423 66.682357h414.33273v-168.540416H543.489826a91.827093 91.827093 0 0 1 51.2993 82.23372zM440.083363 589.605338a91.456823 91.456823 0 0 1-28.611814-66.682357 90.379672 90.379672 0 0 1 0.33661-9.324086 92.029059 92.029059 0 0 0 60.253114 76.006443h0.269288a91.591466 91.591466 0 0 1-9.526051-168.540416H26.457513v168.540416z" fill="#EAEAEA" p-id="4969"></path><path d="M502.995694 594.957431a91.052891 91.052891 0 0 1-30.665133-5.352093h-0.269288a90.884586 90.884586 0 0 0 30.766116 5.352093z" fill="#E9E8E8" p-id="4970"></path><path d="M132.927123 758.145755a91.625127 91.625127 0 0 1 174.397423 0h672.512277v-168.540417H565.504093a91.288518 91.288518 0 0 1-125.488051 0H26.457513v168.540417z" fill="#E9E8E8" p-id="4971"></path><path d="M959.3373 927.931626a118.520233 118.520233 0 0 0 20.39854-66.682357v-103.103514H307.324546a91.120213 91.120213 0 0 1 4.443246 28.174221 92.7696 92.7696 0 0 1-0.639558 10.603202c0.302949 3.096808 0.302949 5.924329 0.302948 9.021137a91.490484 91.490484 0 1 1-182.980967 0 90.346011 90.346011 0 0 1 0.33661-9.324086 91.860754 91.860754 0 0 0 90.884586 81.358536 91.591466 91.591466 0 0 1-87.047237-119.83301H26.457513v103.103514a118.520233 118.520233 0 0 0 20.39854 66.682357z" fill="#E8E7E7" p-id="4972"></path><path d="M958.529437 929.042438l0.875185-1.245456H46.856053l0.875185 1.245456z" fill="#E7E6E6" p-id="4973"></path><path d="M957.654252 930.456198l0.875185-1.245455H47.764899l0.875185 1.245455z" fill="#E6E5E5" p-id="4974"></path><path d="M956.745406 931.701653l0.875185-1.245455h-908.845863l0.875185 1.245455z" fill="#E5E4E4" p-id="4975"></path><path d="M955.971204 932.947109l0.908846-1.245456H49.54893l0.908846 1.245456z" fill="#E4E3E3" p-id="4976"></path><path d="M954.826732 934.192564l0.976167-1.245455H50.491437l0.976168 1.245455z" fill="#E3E2E2" p-id="4977"></path><path d="M953.850564 935.43802l0.976168-1.245456H51.433944l0.976167 1.245456z" fill="#E2E1E1" p-id="4978"></path><path d="M952.874396 936.717136l0.976168-1.245455H52.443772l0.976168 1.245455z" fill="#E1E0E0" p-id="4979"></path><path d="M951.797245 937.962592l1.077151-1.245456H53.41994l1.077151 1.245456z" fill="#E0DFDF" p-id="4980"></path><path d="M950.720095 939.140725l1.07715-1.245455H54.46343l1.077151 1.245455z" fill="#DFDEDE" p-id="4981"></path><path d="M949.642944 940.453503l1.077151-1.245456H55.574241l1.077151 1.245456z" fill="#DEDDDD" p-id="4982"></path><path d="M948.532132 941.698958l1.110812-1.245455H56.651392l1.110812 1.245455z" fill="#DDDCDC" p-id="4983"></path><path d="M947.320338 942.978074l1.178133-1.245455H57.762204l1.178133 1.245455z" fill="#DCDBDB" p-id="4984"></path><path d="M946.142204 944.22353l1.178134-1.245456H58.940337l1.178134 1.245456z" fill="#DBDADA" p-id="4985"></path><path d="M944.93041 945.468985l1.211794-1.245455H60.152132l1.211794 1.245455z" fill="#DAD9D9" p-id="4986"></path><path d="M943.617633 946.714441l1.312777-1.245456H61.330265l1.312778 1.245456z" fill="#D9D8D8" p-id="4987"></path><path d="M942.304855 947.959896l1.312778-1.245455H62.676704l1.312777 1.245455z" fill="#D8D7D7" p-id="4988"></path><path d="M940.992078 949.239013l1.312777-1.245456H63.95582l1.312777 1.245456z" fill="#D7D6D6" p-id="4989"></path><path d="M939.578318 950.484468l1.41376-1.245455H65.302258l1.413761 1.245455z" fill="#D6D5D5" p-id="4990"></path><path d="M938.130896 951.729923l1.447422-1.245455H66.716019l1.447421 1.245455z" fill="#D5D4D4" p-id="4991"></path><path d="M936.683475 952.975379l1.447421-1.245456H68.16344l1.447421 1.245456z" fill="#D4D3D3" p-id="4992"></path><path d="M935.10141 954.220834l1.582065-1.245455H69.610861l1.582065 1.245455z" fill="#D3D2D2" p-id="4993"></path><path d="M933.519345 955.499951l1.582065-1.245456H71.192926l1.582065 1.245456z" fill="#D2D1D1" p-id="4994"></path><path d="M931.903619 956.745406l1.615726-1.245455H72.774991l1.615726 1.245455z" fill="#D1D0D0" p-id="4995"></path><path d="M930.153249 957.990862l1.75037-1.245456H74.390717l1.75037 1.245456z" fill="#D0CFCF" p-id="4996"></path><path d="M928.369219 959.3373l1.750369-1.245456H76.141087l1.75037 1.245456z" fill="#CFCECE" p-id="4997"></path><path d="M926.551527 960.481772l1.851353-1.245455H77.891457l1.851352 1.245455z" fill="#CDCCCD" p-id="4998"></path><path d="M924.56553 961.760889l1.952336-1.245456H79.742809l1.952336 1.245456z" fill="#CCCBCC" p-id="4999"></path><path d="M922.613195 963.006344l1.952335-1.245455H81.695145l1.952335 1.245455z" fill="#CBCACB" p-id="5000"></path><path d="M920.458894 964.2518l2.154301-1.245456H83.64748l2.154302 1.245456z" fill="#CAC9CA" p-id="5001"></path><path d="M918.270931 965.497255l2.187963-1.245455H85.835443l2.187962 1.245455z" fill="#C9C8C9" p-id="5002"></path><path d="M915.914664 966.742711l2.356267-1.245456H87.989744l2.356267 1.245456z" fill="#C8C7C8" p-id="5003"></path><path d="M913.491075 968.021827l2.45725-1.245455H90.346011l2.45725 1.245455z" fill="#C7C6C7" p-id="5004"></path><path d="M910.865521 969.267282l2.625554-1.245455H92.803261l2.625555 1.245455z" fill="#C6C5C6" p-id="5005"></path><path d="M908.071661 970.512738l2.760199-1.245456H95.428816l2.760198 1.245456z" fill="#C5C4C5" p-id="5006"></path><path d="M905.042175 971.758193l3.029486-1.245455H98.189014l3.029486 1.245455z" fill="#C4C3C4" p-id="5007"></path><path d="M901.878045 973.003649l3.16413-1.245456H101.252161l3.16413 1.245456z" fill="#C3C2C3" p-id="5008"></path><path d="M108.085336 974.282765h790.090003l3.669045-1.245455H104.348969l0.774202 0.269287z" fill="#C2C1C2" p-id="5009"></path><path d="M108.085336 974.282765l4.039315 1.245456h782.045034l4.039315-1.245456z" fill="#C1C0C1" p-id="5010"></path><path d="M116.702541 976.773676h772.855593c1.548404-0.370271 3.063147-0.807863 4.611551-1.245455H112.124651c1.514743 0.437592 3.063147 0.875185 4.57789 1.245455z" fill="#C0BFC0" p-id="5011"></path><path d="M122.323921 978.019132H883.936754q2.82752-0.572236 5.62138-1.245456H116.702541q2.79386 0.70688 5.62138 1.245456z" fill="#BFBEBF" p-id="5012"></path><path d="M130.166924 979.264587h745.960488c2.625555-0.33661 5.251109-0.740541 7.809342-1.245455H122.323921c2.591894 0.504914 5.217448 0.908846 7.843003 1.245455z" fill="#BEBDBE" p-id="5013"></path><path d="M145.516321 980.308077h715.261694a120.16962 120.16962 0 0 0 15.349397-1.009829H130.166924a120.16962 120.16962 0 0 0 15.349397 1.009829z" fill="#BDBCBD" p-id="5014"></path><path d="M594.149568 513.598895v0.302949a92.7696 92.7696 0 0 0 0.639558-10.603202 92.264686 92.264686 0 1 0-0.639558 10.300253zM785.983367 286.118142a92.163703 92.163703 0 0 0 91.153874-81.358535v0.302948a92.7696 92.7696 0 0 0 0.639558-10.603201A91.591466 91.591466 0 1 0 785.983367 286.118142zM220.142665 694.661188a91.658788 91.658788 0 1 0 90.884586 101.959041v0.302949a92.7696 92.7696 0 0 0 0.639558-10.603202 91.72611 91.72611 0 0 0-91.524144-91.658788z" fill="#DB2E27" p-id="5015"></path><path d="M594.486177 522.922981c0-3.096808 0-5.924329-0.302948-9.021137v-0.302949a92.163703 92.163703 0 0 1-91.153874 81.358536 90.884586 90.884586 0 0 1-30.766116-5.352093 92.029059 92.029059 0 0 1-60.253114-76.006443 90.379672 90.379672 0 0 0-0.33661 9.324086 91.490484 91.490484 0 0 0 182.980967 0zM219.97436 877.978765a91.860754 91.860754 0 0 1-90.884586-81.358536 90.346011 90.346011 0 0 0-0.33661 9.324086 91.490484 91.490484 0 1 0 182.980967 0c0-3.096808 0-5.924329-0.302949-9.021137v-0.302949a92.163703 92.163703 0 0 1-91.456822 81.358536zM877.170902 205.163538v-0.302948A92.163703 92.163703 0 0 1 785.983367 286.118142a91.928076 91.928076 0 0 1-90.884587-81.358535 90.379672 90.379672 0 0 0-0.336609 9.324085 91.490484 91.490484 0 0 0 182.980967 0c-0.269288-2.995825-0.269288-5.823346-0.572236-8.920154z" fill="#FFFFFF" p-id="5016"></path></svg>