<?xml version="1.0" standalone="no"?><!DOCTYPE svg PUBLIC "-//W3C//DTD SVG 1.1//EN" "http://www.w3.org/Graphics/SVG/1.1/DTD/svg11.dtd"><svg t="1556791183468" class="icon" style="" viewBox="0 0 1043 1024" version="1.1" xmlns="http://www.w3.org/2000/svg" p-id="5134" xmlns:xlink="http://www.w3.org/1999/xlink" width="48.890625" height="48"><defs><style type="text/css"></style></defs><path d="M921.6 65.553001l1.340485 1.046233c2.092465 1.634738 4.11954 3.269476 6.081226 5.100383s3.563729 3.269476 5.263857 5.100383 3.269476 3.269476 4.675352 5.100383 2.844444 3.269476 4.184929 5.100383 2.517497 3.269476 3.727203 5.100383a115.118263 115.118263 0 0 1 20.238059 65.389528v694.763729a115.118263 115.118263 0 0 1-19.813027 64.768327l-0.850064 1.209706-0.850063 1.209707-0.850064 1.209706-0.882759 1.209706-0.948148 1.209706-0.948148 1.209707-0.948148 1.209706-1.046233 1.209706-1.046232 1.209706-1.046233 1.209707-1.078927 1.209706-1.144317 1.209706-1.144316 1.209706-1.177012 1.209707-1.275096 1.209706-1.275095 1.209706-1.275096 1.209706-1.37318 1.209707-1.405875 1.209706-1.405875 1.209706-1.536654 1.209706-1.536654 1.209707-1.569348 1.209706-1.700128 1.209706-1.700128 1.209707-1.798212 1.209706-1.896296 1.209706-1.896296 1.209706-2.092465 1.209707-2.12516 1.209706-2.288633 1.209706-2.386718 1.209706-2.550192 1.209707-2.68097 1.209706-2.942529 1.209706-3.073308 1.209706-3.563729 1.209707-3.923372 1.209706c-1.471264 0.425032-2.975223 0.850064-4.479182 1.209706s-3.629119 0.850064-5.460026 1.209706c-2.517497 0.490421-5.034994 0.882759-7.585185 1.209707a116.753001 116.753001 0 0 1-14.908812 0.980843H156.738697a116.753001 116.753001 0 0 1-14.908812-0.980843c-2.550192-0.326948-5.100383-0.719285-7.585185-1.209707q-2.74636-0.555811-5.460026-1.209706c-1.503959-0.359642-2.975223-0.784674-4.479182-1.209706l-3.923372-1.209706L117.701149 961.226054a115.772158 115.772158 0 0 0 73.43244 26.155811h694.63295a116.458748 116.458748 0 0 0 116.327969-116.32797V176.224777a116.524138 116.524138 0 0 0-80.494508-110.671776z" fill="#888A85" p-id="5135"></path><path d="M851.469732 41.881992H156.738697a116.622222 116.622222 0 0 0-31.321583 4.283014H882.758621a115.772158 115.772158 0 0 0-31.288889-4.283014z" fill="#F7F6F6" p-id="5136"></path><path d="M882.758621 46.165006H125.417114a115.183653 115.183653 0 0 0-14.581865 5.100384h786.374457a114.791315 114.791315 0 0 0-14.451085-5.100384z" fill="#F6F5F5" p-id="5137"></path><path d="M897.209706 51.26539H110.835249a115.216347 115.216347 0 0 0-10.396935 5.100383h807.135632a115.118263 115.118263 0 0 0-10.36424-5.100383z" fill="#F5F4F4" p-id="5138"></path><path d="M915.943806 61.498851c-2.713665-1.830907-5.49272-3.531034-8.36986-5.100384H100.438314c-2.877139 1.602043-5.688889 3.269476-8.402554 5.100384z" fill="#F4F3F3" p-id="5139"></path><path d="M922.940485 66.599234l-1.340485-1.046233c-1.830907-1.405875-3.694508-2.779055-5.623499-4.05415h-823.908046c-2.386718 1.602043-4.708046 3.269476-6.963985 5.100383z" fill="#F3F2F2" p-id="5140"></path><path d="M929.021711 71.732312c-1.961686-1.765517-4.021456-3.465645-6.081226-5.100384H85.006386c-2.092465 1.634738-4.11954 3.269476-6.113921 5.100384z" fill="#F1F1F1" p-id="5141"></path><path d="M934.285568 76.832695c-1.700128-1.765517-3.465645-3.465645-5.263857-5.100383h-850.063857c-1.830907 1.634738-3.563729 3.269476-5.263857 5.100383z" fill="#F0F0F0" p-id="5142"></path><path d="M938.993614 81.933078q-2.255939-2.615581-4.675351-5.100383H73.693997q-2.419413 2.484802-4.675351 5.100383z" fill="#EFEFEF" p-id="5143"></path><path d="M943.145849 87.066156q-2.027075-2.615581-4.184929-5.100383H69.018646q-2.157854 2.484802-4.18493 5.100383z" fill="#EEEEEE" p-id="5144"></path><path d="M946.873052 92.166539c-1.209706-1.732822-2.452107-3.43295-3.727203-5.100383H64.833716c-1.275096 1.667433-2.517497 3.269476-3.727203 5.100383z" fill="#EDEDED" p-id="5145"></path><path d="M130.779055 260.969604a99.555556 99.555556 0 0 1-9.154534-50.415326c-0.196169-2.419413-0.326948-4.87152-0.326948-7.356321a93.180077 93.180077 0 1 1 186.360154 0 94.585951 94.585951 0 0 1-0.490422 9.808429c0 2.321328 0.163474 4.577267 0.163474 6.963984a92.493487 92.493487 0 0 1-9.61226 41.097318h413.425287a93.245466 93.245466 0 0 1-11.11622-44.366794 91.839591 91.839591 0 0 1 0.326948-9.481481 92.983908 92.983908 0 0 0 25.305747 53.848275h0.163474a93.147382 93.147382 0 1 1 160.4659-64.3106 94.324393 94.324393 0 0 1-0.6212 10.756577c0.294253 3.269476 0.294253 6.015837 0.294253 9.187229a92.526181 92.526181 0 0 1-11.279694 44.366794h92.428097V157.523372a115.118263 115.118263 0 0 0-20.238059-65.389528H61.106513a114.431673 114.431673 0 0 0-20.009195 65.389528v103.446232z" fill="#ECECEC" p-id="5146"></path><path d="M792.880715 289.83908h0.163474A92.918519 92.918519 0 0 1 725.823755 260.969604h-0.261558a92.820434 92.820434 0 0 0 67.318518 28.869476z" fill="#EBEBEB" p-id="5147"></path><path d="M967.111111 424.672286V260.969604h-92.330013a92.983908 92.983908 0 0 1-163.473818 0H297.751213a92.951213 92.951213 0 0 1-166.972158 0H41.097318v163.702682z" fill="#EBEBEB" p-id="5148"></path><path d="M41.097318 424.672286H967.111111v163.702682H41.097318z" fill="#EAEAEA" p-id="5149"></path><path d="M135.585185 751.979566a93.049298 93.049298 0 0 1 157.817625 0h420.879693a93.049298 93.049298 0 0 1 157.817625 0h95.010983v-163.473819H41.097318v163.473819z" fill="#E9E8E8" p-id="5150"></path><path d="M947.298084 917.022733a115.118263 115.118263 0 0 0 19.813027-64.768327V751.979566h-95.010983a92.526181 92.526181 0 0 1 14.254917 49.401788 94.324393 94.324393 0 0 1-0.621201 10.756577c0.294253 3.269476 0.294253 6.015837 0.294253 9.187229a93.016603 93.016603 0 1 1-186.033206 0 91.839591 91.839591 0 0 1 0.326948-9.481482 93.376245 93.376245 0 0 0 92.526181 82.717752h0.163474A93.081992 93.081992 0 0 1 714.282503 751.979566H293.40281a92.526181 92.526181 0 0 1 14.254917 49.401788 94.357088 94.357088 0 0 1-0.621201 10.756577c0.294253 3.269476 0.294253 6.015837 0.294253 9.187229a93.016603 93.016603 0 1 1-186.033206 0 91.839591 91.839591 0 0 1 0.326948-9.481482 93.376245 93.376245 0 0 0 92.526181 82.717752h0.163474A93.081992 93.081992 0 0 1 135.585185 751.979566h-94.487867v100.144061a115.118263 115.118263 0 0 0 19.813027 64.768327z" fill="#E8E7E7" p-id="5151"></path><path d="M946.415326 918.232439l0.850064-1.209706H60.94304l0.850063 1.209706z" fill="#E7E6E6" p-id="5152"></path><path d="M945.565262 919.442146l0.850064-1.209707H61.793103l0.850064 1.209707z" fill="#E6E5E5" p-id="5153"></path><path d="M944.682503 920.684547l0.850064-1.209707h-882.758621l0.850064 1.209707z" fill="#E5E4E4" p-id="5154"></path><path d="M943.799745 921.992337l0.882758-1.209706H63.525926l0.882759 1.209706z" fill="#E4E3E3" p-id="5155"></path><path d="M942.851596 923.103959l0.948149-1.209706H64.408685l0.948148 1.209706z" fill="#E3E2E2" p-id="5156"></path><path d="M941.903448 924.313665l0.948148-1.209706H65.389527l0.948149 1.209706z" fill="#E2E1E1" p-id="5157"></path><path d="M940.922605 925.523372l0.948149-1.209707H66.337676l0.948148 1.209707z" fill="#E1E0E0" p-id="5158"></path><path d="M939.909068 926.765773l1.046232-1.209707H67.285824l1.046232 1.209707z" fill="#E0DFDF" p-id="5159"></path><path d="M938.862835 927.975479l1.046233-1.209706H68.332056l1.046233 1.209706z" fill="#DFDEDE" p-id="5160"></path><path d="M937.783908 929.185185l1.046232-1.209706H69.378289l1.046232 1.209706z" fill="#DEDDDD" p-id="5161"></path><path d="M936.704981 930.394891l1.078927-1.209706H70.424521l1.078927 1.209706z" fill="#DDDCDC" p-id="5162"></path><path d="M935.560664 931.604598l1.144317-1.209707H71.503448l1.144317 1.209707z" fill="#DCDBDB" p-id="5163"></path><path d="M934.383653 932.846999l1.144316-1.209707H72.68046l1.144317 1.209707z" fill="#DBDADA" p-id="5164"></path><path d="M933.239336 934.056705l1.177011-1.209706H73.824777l1.177011 1.209706z" fill="#DAD9D9" p-id="5165"></path><path d="M931.800766 935.266411l1.275096-1.209706H75.001788l1.275096 1.209706z" fill="#D9D8D8" p-id="5166"></path><path d="M930.689144 936.476117l1.275096-1.209706H76.276884l1.275096 1.209706z" fill="#D8D7D7" p-id="5167"></path><path d="M929.414049 937.685824l1.275095-1.209707H77.55198l1.275095 1.209707z" fill="#D7D6D6" p-id="5168"></path><path d="M928.008174 938.928225l1.37318-1.209706H78.827075l1.37318 1.209706z" fill="#D6D5D5" p-id="5169"></path><path d="M926.602299 940.137931l1.405875-1.209706H80.200255l1.405875 1.209706z" fill="#D5D4D4" p-id="5170"></path><path d="M925.261814 941.347637l1.405874-1.209706H81.736909l1.405875 1.209706z" fill="#D4D3D3" p-id="5171"></path><path d="M923.65977 942.557344l1.536654-1.209707H83.012005l1.536654 1.209707z" fill="#D3D2D2" p-id="5172"></path><path d="M921.992337 943.76705l1.536654-1.209706H84.548659l1.536654 1.209706z" fill="#D2D1D1" p-id="5173"></path><path d="M920.553768 944.878672l1.569348-1.209706H86.085313l1.569349 1.209706z" fill="#D1D0D0" p-id="5174"></path><path d="M918.722861 946.219157l1.700128-1.209706H87.654662l1.700127 1.209706z" fill="#D0CFCF" p-id="5175"></path><path d="M917.153512 947.428863l1.700128-1.209706H89.354789l1.700128 1.209706z" fill="#CFCECE" p-id="5176"></path><path d="M915.453384 948.63857l1.798212-1.209707H91.087612l1.798212 1.209707z" fill="#CDCCCD" p-id="5177"></path><path d="M913.459004 949.848276l1.896296-1.209706H92.885824l1.896296 1.209706z" fill="#CCCBCC" p-id="5178"></path><path d="M911.562708 951.090677l1.896296-1.209706H94.814815l1.896296 1.209706z" fill="#CBCACB" p-id="5179"></path><path d="M909.437548 952.300383l2.092465-1.209706H96.678416l2.092465 1.209706z" fill="#CAC9CA" p-id="5180"></path><path d="M907.345083 953.510089l2.12516-1.209706h-810.830141l2.12516 1.209706z" fill="#C9C8C9" p-id="5181"></path><path d="M905.05645 954.687101l2.288633-1.209706H100.896041l2.288633 1.209706z" fill="#C8C7C8" p-id="5182"></path><path d="M902.669732 955.929502l2.386718-1.209706H103.184674l2.386718 1.209706z" fill="#C7C6C7" p-id="5183"></path><path d="M900.11954 957.171903l2.550192-1.209706H105.538697l2.550192 1.209706z" fill="#C6C5C6" p-id="5184"></path><path d="M897.43857 958.381609l2.68097-1.209706H108.088889l2.680971 1.209706z" fill="#C5C4C5" p-id="5185"></path><path d="M894.463346 959.591315l2.942529-1.209706H110.802554l2.942529 1.209706z" fill="#C4C3C4" p-id="5186"></path><path d="M891.390038 960.801022l3.073308-1.209707H113.745083l3.073308 1.209707z" fill="#C3C2C3" p-id="5187"></path><path d="M120.414815 962.010728h767.411494l3.563729-1.209706H116.818391l0.882758 0.425032z" fill="#C2C1C2" p-id="5188"></path><path d="M120.414815 962.010728l3.923371 1.209706h759.564751l3.923372-1.209706z" fill="#C1C0C1" p-id="5189"></path><path d="M128.784674 964.49553H879.489144c1.503959-0.359642 2.975223-0.784674 4.479183-1.209706H124.240102c1.569349 0.392337 3.040613 0.784674 4.544572 1.209706z" fill="#C0BFC0" p-id="5190"></path><path d="M134.2447 965.672542h739.751724q2.74636-0.555811 5.460026-1.209707H128.784674q2.713665 0.653895 5.460026 1.209707z" fill="#BFBEBF" p-id="5191"></path><path d="M141.829885 966.882248H866.411239c2.550192-0.326948 5.100383-0.719285 7.585185-1.209706H134.2447c2.484802 0.490421 5.034994 0.882759 7.585185 1.209706z" fill="#BEBDBE" p-id="5192"></path><path d="M156.738697 967.765006h694.731035a116.753001 116.753001 0 0 0 14.908812-0.980843H141.829885a116.753001 116.753001 0 0 0 14.908812 0.980843z" fill="#BDBCBD" p-id="5193"></path><path d="M214.183397 293.108557a93.703193 93.703193 0 0 0 92.853129-82.717752v2.517496a94.585951 94.585951 0 0 0 0.490422-9.808429 93.180077 93.180077 0 1 0-186.360154 0c0 2.484802 0 4.936909 0.326948 7.356322a93.376245 93.376245 0 0 0 92.689655 82.652363zM793.044189 289.83908a93.703193 93.703193 0 0 0 92.689655-82.717752v0.294253a94.324393 94.324393 0 0 0 0.621201-10.756577 93.081992 93.081992 0 1 0-93.343551 93.180076zM214.510345 708.332056a93.180077 93.180077 0 1 0 92.526181 103.642401v0.294253a94.357088 94.357088 0 0 0 0.621201-10.756577 93.376245 93.376245 0 0 0-93.180077-93.180077zM793.207663 708.332056a93.180077 93.180077 0 1 0 92.526181 103.642401v0.294253a94.324393 94.324393 0 0 0 0.621201-10.756577 93.376245 93.376245 0 0 0-93.180077-93.180077z" p-id="5194"></path><path d="M793.044189 894.692209h-0.163474a93.376245 93.376245 0 0 1-92.526181-82.717752 91.839591 91.839591 0 0 0-0.326948 9.481482 93.016603 93.016603 0 1 0 186.033206 0c0-3.269476 0-6.048531-0.294253-9.187229v-0.294253a93.703193 93.703193 0 0 1-92.72235 82.717752zM214.346871 894.692209h-0.163474a93.376245 93.376245 0 0 1-92.526181-82.717752 91.839591 91.839591 0 0 0-0.326948 9.481482 93.016603 93.016603 0 1 0 186.033206 0c0-3.269476 0-6.048531-0.294253-9.187229v-0.294253a93.703193 93.703193 0 0 1-92.72235 82.717752zM307.330779 212.908301v-2.517496a93.278161 93.278161 0 0 1-185.37931 0 93.081992 93.081992 0 1 0 185.37931 9.481481v-6.963985zM885.733844 207.415581v-0.294253a93.703193 93.703193 0 0 1-92.689655 82.717752h-0.163474a93.441635 93.441635 0 0 1-92.526181-82.717752 91.839591 91.839591 0 0 0-0.326948 9.481482 93.016603 93.016603 0 0 0 186.033206 0c-0.032695-3.171392-0.032695-6.015837-0.326948-9.187229z" fill="#FFFFFF" p-id="5195"></path></svg>