<?xml version="1.0" standalone="no"?><!DOCTYPE svg PUBLIC "-//W3C//DTD SVG 1.1//EN" "http://www.w3.org/Graphics/SVG/1.1/DTD/svg11.dtd"><svg t="1556791163143" class="icon" style="" viewBox="0 0 1040 1024" version="1.1" xmlns="http://www.w3.org/2000/svg" p-id="4775" xmlns:xlink="http://www.w3.org/1999/xlink" width="48.75" height="48"><defs><style type="text/css"></style></defs><path d="M933.893128 48.679976l1.383145 1.079529c2.159056 1.686763 4.250642 3.373526 6.274758 5.2627s3.677143 3.373526 5.431377 5.2627 3.373526 3.373526 4.824141 5.2627 2.934967 3.373526 4.318113 5.2627 2.597615 3.373526 3.84582 5.2627a118.781841 118.781841 0 0 1 20.882124 67.470515V860.249061a118.781841 118.781841 0 0 1-20.443566 66.829545l-0.877117 1.248204-0.877116 1.248205-0.877117 1.248204-0.910852 1.248205-0.978322 1.248204-0.978323 1.248205-0.978322 1.248204-1.079529 1.248205-1.079528 1.248204-1.079528 1.248205-1.113264 1.248205-1.180734 1.248204-1.180734 1.248205-1.214469 1.248204-1.315675 1.248205-1.315675 1.248204-1.315675 1.248205-1.416881 1.248204-1.450616 1.248205-1.450616 1.248204-1.585557 1.248205-1.686763 1.416881-1.619292 1.248204-1.754234 1.248205-1.754233 1.248204-1.855439 1.248205-1.956645 1.248204-1.956645 1.248205-2.159056 1.248204-2.192792 1.248205-2.361468 1.248204-2.462674 1.248205-2.63135 1.248204-2.766291 1.248205-3.036173 1.248204-3.171114 1.248205-3.677144 1.248204-4.04823 1.248205c-1.518087 0.438558-3.069908 0.877117-4.621731 1.248204s-3.744614 0.877117-5.633788 1.248205c-2.597615 0.506029-5.19523 0.910852-7.826579 1.248204a120.434869 120.434869 0 0 1-15.383278 1.012058H144.724254a120.434869 120.434869 0 0 1-15.383278-1.012058c-2.63135-0.337353-5.2627-0.742176-7.826579-1.248204q-2.833762-0.573499-5.633788-1.248205c-1.551822-0.371088-3.069908-0.809646-4.62173-1.248204l-4.048231-1.248205-2.901232-0.978322a119.456546 119.456546 0 0 0 75.769387 26.988206h716.840483a120.164986 120.164986 0 0 0 120.030045-120.030046V162.840087a120.232457 120.232457 0 0 0-83.056203-114.160111z" fill="#888A85" p-id="4776"></path><path d="M861.564736 24.25565H144.724254a120.333663 120.333663 0 0 0-32.352112 4.419319h781.37603a119.456546 119.456546 0 0 0-32.183436-4.419319z" fill="#F7F6F6" p-id="4777"></path><path d="M893.748172 28.674969H112.372142a118.916782 118.916782 0 0 0-15.045925 5.2627h811.400409a118.478224 118.478224 0 0 0-14.978454-5.2627z" fill="#F6F5F5" p-id="4778"></path><path d="M908.726626 33.937669H97.359953a118.916782 118.916782 0 0 0-10.727812 5.2627h832.822297a118.781841 118.781841 0 0 0-10.727812-5.2627z" fill="#F5F4F4" p-id="4779"></path><path d="M919.454438 39.234104H86.598405c-2.968703 1.653028-5.869935 3.373526-8.669961 5.2627h850.128484c-2.766291-1.889174-5.667523-3.643408-8.60249-5.2627z" fill="#F4F3F3" p-id="4780"></path><path d="M933.893128 48.679976c-1.889174-1.450616-3.812084-2.867497-5.802464-4.183172h-850.128484c-2.462674 1.653028-4.857877 3.373526-7.18561 5.262701h864.499703z" fill="#F3F2F2" p-id="4781"></path><path d="M935.276273 49.759505H70.84404c-2.159056 1.686763-4.250642 3.373526-6.308493 5.2627h877.11669c-2.125321-1.821704-4.216907-3.575937-6.375964-5.2627z" fill="#F1F1F1" p-id="4782"></path><path d="M941.584766 55.05594h-877.116689c-1.889174 1.686763-3.677143 3.373526-5.431377 5.2627h887.979443c-1.754233-1.821704-3.575937-3.575937-5.431377-5.2627z" fill="#F0F0F0" p-id="4783"></path><path d="M947.016143 60.31864H59.002965q-2.496409 2.56388-4.824142 5.2627h897.661462q-2.327733-2.698821-4.824142-5.2627z" fill="#EFEFEF" p-id="4784"></path><path d="M951.840285 65.58134H54.178823q-2.226527 2.56388-4.318113 5.2627h906.297688q-2.091586-2.698821-4.318113-5.2627z" fill="#EEEEEE" p-id="4785"></path><path d="M956.158398 70.84404H49.86071c-1.315675 1.720498-2.597615 3.373526-3.845819 5.2627h913.989326c-1.248205-1.889174-2.530144-3.508467-3.845819-5.2627z" fill="#EDEDED" p-id="4786"></path><path d="M692.719773 220.088819a90.376754 90.376754 0 0 1 0.337353-9.310931 91.085195 91.085195 0 0 0 14.135073 39.537721 91.624959 91.624959 0 1 1 168.676286-49.523358 92.839428 92.839428 0 0 1-0.607234 10.491665c0.269882 3.002438 0.303617 5.768729 0.303617 8.804903a91.085195 91.085195 0 0 1-5.161494 30.361731h110.314291V143.577255a118.781841 118.781841 0 0 0-20.882124-67.470515H46.048626a118.073401 118.073401 0 0 0-20.645977 67.470515V250.315609h672.377413a92.164723 92.164723 0 0 1-5.060289-30.22679z" fill="#ECECEC" p-id="4787"></path><path d="M726.488766 271.771233a92.535811 92.535811 0 0 1-19.161626-21.455624 91.962311 91.962311 0 0 0 19.161626 21.455624z" fill="#EBEBEB" p-id="4788"></path><path d="M980.852606 250.315609h-110.314291a91.456283 91.456283 0 0 1-172.758253 0H25.402649v168.912433h955.449957z" fill="#EBEBEB" p-id="4789"></path><path d="M25.402649 419.228042h955.483692v168.912434H25.402649z" fill="#EAEAEA" p-id="4790"></path><path d="M221.57317 700.883706a91.658694 91.658694 0 0 1 84.540555 56.169203h674.705146v-168.912433H25.402649v168.912433h111.663701a91.861106 91.861106 0 0 1 84.50682-56.169203z" fill="#E9E8E8" p-id="4791"></path><path d="M980.852606 860.249061v-103.162417h-674.705146a91.456283 91.456283 0 0 1 7.118139 35.489491 92.805693 92.805693 0 0 1-0.607234 10.491665c0.269882 3.002438 0.303617 5.768729 0.303617 8.804902a91.490018 91.490018 0 1 1-182.980036 0 90.444225 90.444225 0 0 1 0.337353-9.310931A91.490018 91.490018 0 0 0 163.615998 863.622587a91.456283 91.456283 0 0 1-26.549648-106.401002H25.402649V860.249061a118.781841 118.781841 0 0 0 20.443566 66.829545h914.562825a118.781841 118.781841 0 0 0 20.443566-66.829545z" fill="#E8E7E7" p-id="4792"></path><path d="M960.40904 927.247282H45.846215l0.877116 1.248205h912.808592z" fill="#E7E6E6" p-id="4793"></path><path d="M959.531923 928.495487H46.723331l0.877117 1.248204h910.851947z" fill="#E6E5E5" p-id="4794"></path><path d="M958.621071 929.743691h-910.851947l0.877117 1.248205H957.743955z" fill="#E5E4E4" p-id="4795"></path><path d="M957.743955 931.093101H48.5113l0.910852 1.248205h907.478421z" fill="#E4E3E3" p-id="4796"></path><path d="M956.799367 932.273835h-907.478421l0.978323 1.248205h905.521776z" fill="#E3E2E2" p-id="4797"></path><path d="M955.821045 933.52204H50.602886l0.978322 1.248204H954.707782z" fill="#E2E1E1" p-id="4798"></path><path d="M954.707782 934.770244H51.412532l0.978323 1.248205h901.473545z" fill="#E1E0E0" p-id="4799"></path><path d="M953.8644 936.018449H52.42459l1.079528 1.248204h899.280754z" fill="#E0DFDF" p-id="4800"></path><path d="M952.784872 937.300389H53.470383l1.079528 1.248204h897.155433z" fill="#DFDEDE" p-id="4801"></path><path d="M951.705344 938.548593H54.549911l1.079528 1.248205h894.996376z" fill="#DEDDDD" p-id="4802"></path><path d="M950.625815 939.796798H55.663175l1.113263 1.248204h892.702379z" fill="#DDDCDC" p-id="4803"></path><path d="M949.478817 941.213679H56.776438l1.180734 1.248204H948.298083z" fill="#DCDBDB" p-id="4804"></path><path d="M948.298083 942.293207H57.957172l1.180734 1.248204h887.979443z" fill="#DBDADA" p-id="4805"></path><path d="M947.117349 943.575147H59.171641l1.21447 1.248204h885.550504z" fill="#DAD9D9" p-id="4806"></path><path d="M945.902879 944.823351H60.352375l1.315675 1.248205H944.587204z" fill="#D9D8D8" p-id="4807"></path><path d="M944.587204 946.071556H61.66805l1.315675 1.248204h880.287804z" fill="#D8D7D7" p-id="4808"></path><path d="M943.271529 947.31976H62.983725l1.315675 1.248205h877.656454z" fill="#D7D6D6" p-id="4809"></path><path d="M941.955854 948.567965H64.2994l1.416881 1.248204h874.788957z" fill="#D6D5D5" p-id="4810"></path><path d="M940.505238 949.849904H65.750016l1.450617 1.248205h871.887724z" fill="#D5D4D4" p-id="4811"></path><path d="M939.088357 951.098109H67.200633l1.450616 1.248205h868.986492z" fill="#D4D3D3" p-id="4812"></path><path d="M937.637741 952.346314H68.651249l1.585557 1.248204h865.815378z" fill="#D3D2D2" p-id="4813"></path><path d="M936.052184 953.594518H70.236806l1.585557 1.248205H934.466627z" fill="#D2D1D1" p-id="4814"></path><path d="M934.466627 954.707782H71.822363l1.619292 1.248204h859.40568z" fill="#D1D0D0" p-id="4815"></path><path d="M932.847335 956.124662H73.441655l1.754234 1.248205H931.093101z" fill="#D0CFCF" p-id="4816"></path><path d="M931.093101 957.372867H75.195889l1.754233 1.248204h852.355011z" fill="#CFCECE" p-id="4817"></path><path d="M929.305133 958.621071H76.950122l1.855439 1.248205h848.644133z" fill="#CDCCCD" p-id="4818"></path><path d="M927.449694 959.869276H78.805561l1.956645 1.248204h844.730843z" fill="#CCCBCC" p-id="4819"></path><path d="M925.493049 961.11748H80.762206l1.956645 1.248205h840.817553z" fill="#CBCACB" p-id="4820"></path><path d="M923.536404 962.39942H82.718851l2.159056 1.248205h836.634381z" fill="#CAC9CA" p-id="4821"></path><path d="M921.377347 963.647625h-836.634381l2.192792 1.248204h832.248798z" fill="#C9C8C9" p-id="4822"></path><path d="M919.184556 964.828359H87.070699l2.361468 1.248204h827.390921z" fill="#C8C7C8" p-id="4823"></path><path d="M916.823088 966.144034H89.432167l2.462674 1.248204H914.225473z" fill="#C7C6C7" p-id="4824"></path><path d="M914.225473 967.392238H91.894841l2.63135 1.248205h817.202873z" fill="#C6C5C6" p-id="4825"></path><path d="M911.729064 968.674178H94.45872l2.766292 1.248205h811.67029z" fill="#C5C4C5" p-id="4826"></path><path d="M908.962773 969.922383H97.292482l3.036173 1.248204h805.597944z" fill="#C4C3C4" p-id="4827"></path><path d="M905.926599 971.170587H100.328655l3.171114 1.248205H902.755485z" fill="#C3C2C3" p-id="4828"></path><path d="M899.044607 973.666996l3.677143-1.248204H103.533505l0.775911 0.269882 2.901232 0.978322z" fill="#C2C1C2" p-id="4829"></path><path d="M111.326349 974.948936h783.703762l4.048231-1.248205H107.210648z" fill="#C1C0C1" p-id="4830"></path><path d="M115.846874 976.19714h774.561507c1.551822-0.371088 3.069908-0.809646 4.62173-1.248204H111.326349c1.450616 0.438558 2.968703 0.843381 4.520525 1.248204z" fill="#C0BFC0" p-id="4831"></path><path d="M121.446926 977.445345h763.327667q2.833762-0.573499 5.633788-1.248205H115.846874q2.800026 0.674705 5.600052 1.248205z" fill="#BFBEBF" p-id="4832"></path><path d="M129.340976 978.693549h747.607037c2.63135-0.337353 5.2627-0.742176 7.82658-1.248204H121.446926c2.63135 0.506029 5.228965 0.877117 7.89405 1.248204z" fill="#BEBDBE" p-id="4833"></path><path d="M144.724254 979.705607h716.840482a120.434869 120.434869 0 0 0 15.383277-1.012058H129.340976a120.434869 120.434869 0 0 0 15.383278 1.012058z" fill="#BDBCBD" p-id="4834"></path><path d="M726.488766 271.771233a91.085195 91.085195 0 0 0 57.552349 20.241154 92.164723 92.164723 0 0 0 91.321341-81.36944v0.506028a92.839428 92.839428 0 0 0 0.607235-10.491665 91.624959 91.624959 0 1 0-149.548396 70.844041zM221.57317 700.883706a91.490018 91.490018 0 1 0 91.085195 101.610595v0.506028a92.805693 92.805693 0 0 0 0.607234-10.491665 91.557488 91.557488 0 0 0-91.658694-91.658694z" p-id="4835"></path><path d="M221.235817 883.863741a91.624959 91.624959 0 0 1-91.085194-81.36944 90.444225 90.444225 0 0 0-0.337353 9.310931 91.490018 91.490018 0 1 0 182.980036 0c0-3.036173 0-5.802464-0.303618-8.804903v-0.506028A92.164723 92.164723 0 0 1 221.235817 883.863741zM875.429927 211.283916v-0.506028a92.164723 92.164723 0 0 1-91.388812 81.36944 91.591224 91.591224 0 0 1-91.085195-81.36944 90.376754 90.376754 0 0 0-0.337352 9.310931 92.164723 92.164723 0 0 0 5.060288 30.361731 91.523753 91.523753 0 0 0 177.919747-30.361731c0.101206-3.036173 0.101206-5.802464-0.168676-8.804903z" fill="#FFFFFF" p-id="4836"></path></svg>